<svg width="44" height="44" viewBox="0 0 44 44" fill="none" xmlns="http://www.w3.org/2000/svg">
<path d="M28.4347 5.18835H15.5647C10.9997 5.18835 9.99134 7.46169 9.40467 10.2484L7.33301 20.1667H36.6663L34.5947 10.2484C34.008 7.46169 32.9997 5.18835 28.4347 5.18835Z" stroke="white" stroke-width="3" stroke-linecap="round" stroke-linejoin="round"/>
<path d="M40.315 36.3366C40.5167 38.4816 38.7933 40.3333 36.5933 40.3333H33.1467C31.1667 40.3333 30.8917 39.49 30.5433 38.445L30.1767 37.345C29.6633 35.8416 29.3333 34.8333 26.6933 34.8333H17.3067C14.6667 34.8333 14.2817 35.97 13.8233 37.345L13.4567 38.445C13.1083 39.49 12.8333 40.3333 10.8533 40.3333H7.40667C5.20667 40.3333 3.48334 38.4816 3.68501 36.3366L4.71167 25.1716C4.96834 22.4216 5.50001 20.1666 10.3033 20.1666H33.6967C38.5 20.1666 39.0317 22.4216 39.2883 25.1716L40.315 36.3366Z" stroke="white" stroke-width="3" stroke-linecap="round" stroke-linejoin="round"/>
<path d="M7.33333 14.6666H5.5" stroke="white" stroke-width="3" stroke-linecap="round" stroke-linejoin="round"/>
<path d="M38.5003 14.6666H36.667" stroke="white" stroke-width="3" stroke-linecap="round" stroke-linejoin="round"/>
<path d="M22 5.5V9.16667" stroke="white" stroke-width="3" stroke-linecap="round" stroke-linejoin="round"/>
<path d="M19.25 9.16669H24.75" stroke="white" stroke-width="3" stroke-linecap="round" stroke-linejoin="round"/>
<path d="M11 27.5H16.5" stroke="white" stroke-width="3" stroke-linecap="round" stroke-linejoin="round"/>
<path d="M27.5 27.5H33" stroke="white" stroke-width="3" stroke-linecap="round" stroke-linejoin="round"/>
</svg>
