<svg width="54" height="54" viewBox="0 0 54 54" fill="none" xmlns="http://www.w3.org/2000/svg">
<path d="M4.5 22.5H49.5" stroke="#2447F9" stroke-width="5" stroke-miterlimit="10" stroke-linecap="round" stroke-linejoin="round"/>
<path d="M25.9836 46.1245H14.4862C6.49866 46.1245 4.47363 44.1445 4.47363 36.247V17.752C4.47363 10.597 6.1387 8.30198 12.4162 7.94198C13.0462 7.91948 13.7437 7.89697 14.4862 7.89697H39.4836C47.4711 7.89697 49.4962 9.87697 49.4962 17.7745V27.697" stroke="#2447F9" stroke-width="5" stroke-linecap="round" stroke-linejoin="round"/>
<path d="M13.5 36H22.5" stroke="#2447F9" stroke-width="5" stroke-miterlimit="10" stroke-linecap="round" stroke-linejoin="round"/>
<path d="M49.5 40.5C49.5 42.1875 49.0275 43.785 48.195 45.135C46.6425 47.745 43.785 49.5 40.5 49.5C37.215 49.5 34.3575 47.745 32.805 45.135C31.9725 43.785 31.5 42.1875 31.5 40.5C31.5 35.5275 35.5275 31.5 40.5 31.5C45.4725 31.5 49.5 35.5275 49.5 40.5Z" stroke="#2447F9" stroke-width="5" stroke-miterlimit="10" stroke-linecap="round" stroke-linejoin="round"/>
<path d="M36.9932 40.4989L39.2206 42.7264L44.0132 38.2939" stroke="#2447F9" stroke-width="5" stroke-linecap="round" stroke-linejoin="round"/>
</svg>
