<svg width="54" height="54" viewBox="0 0 54 54" fill="none" xmlns="http://www.w3.org/2000/svg">
<path d="M12.4649 25.02C1.93488 25.7625 1.93488 41.085 12.4649 41.8275H16.785" stroke="#2447F9" stroke-width="4" stroke-miterlimit="10" stroke-linecap="round" stroke-linejoin="round"/>
<path d="M12.5776 25.02C5.35507 4.92745 35.8199 -3.10504 39.3074 18C49.0499 19.2375 52.9876 32.22 45.6076 38.6775C43.3576 40.725 40.455 41.85 37.4175 41.8275H37.215" stroke="#2447F9" stroke-width="4" stroke-miterlimit="10" stroke-linecap="round" stroke-linejoin="round"/>
<path d="M38.25 37.1925C38.25 38.8575 37.89 40.4325 37.215 41.8275C37.035 42.2325 36.8325 42.615 36.6075 42.975C34.6725 46.2375 31.095 48.4425 27 48.4425C22.905 48.4425 19.3275 46.2375 17.3925 42.975C17.1675 42.615 16.965 42.2325 16.785 41.8275C16.11 40.4325 15.75 38.8575 15.75 37.1925C15.75 30.9825 20.79 25.9425 27 25.9425C33.21 25.9425 38.25 30.9825 38.25 37.1925Z" stroke="#2447F9" stroke-width="4" stroke-miterlimit="10" stroke-linecap="round" stroke-linejoin="round"/>
<path d="M23.49 37.1925L25.7175 39.42L30.51 34.9875" stroke="#2447F9" stroke-width="4" stroke-linecap="round" stroke-linejoin="round"/>
</svg>
