<svg width="44" height="44" viewBox="0 0 44 44" fill="none" xmlns="http://www.w3.org/2000/svg">
<path d="M40.3337 20.35V12.65C40.3337 6.23329 37.767 3.66663 31.3503 3.66663H23.6503C17.2337 3.66663 14.667 6.23329 14.667 12.65V14.6666H20.3503C26.767 14.6666 29.3337 17.2333 29.3337 23.65V29.3333H31.3503C37.767 29.3333 40.3337 26.7666 40.3337 20.35Z" stroke="white" stroke-width="4" stroke-linecap="round" stroke-linejoin="round"/>
<path d="M29.3337 31.35V23.65C29.3337 17.2333 26.767 14.6666 20.3503 14.6666H12.6503C6.23366 14.6666 3.66699 17.2333 3.66699 23.65V31.35C3.66699 37.7666 6.23366 40.3333 12.6503 40.3333H20.3503C26.767 40.3333 29.3337 37.7666 29.3337 31.35Z" stroke="white" stroke-width="4" stroke-linecap="round" stroke-linejoin="round"/>
<path d="M11.1465 27.4999L14.7215 31.0749L21.8532 23.9249" stroke="white" stroke-width="4" stroke-linecap="round" stroke-linejoin="round"/>
</svg>
