<svg width="54" height="54" viewBox="0 0 54 54" fill="none" xmlns="http://www.w3.org/2000/svg">
<path d="M31.5 20.925V27.45H37.35C37.8 27.45 38.025 27.9 38.025 28.35L37.125 32.625C37.125 32.85 36.675 33.075 36.45 33.075H31.5V49.5H24.75V33.3H20.925C20.475 33.3 20.25 33.075 20.25 32.625V28.35C20.25 27.9 20.475 27.675 20.925 27.675H24.75V20.25C24.75 16.425 27.675 13.5 31.5 13.5H37.575C38.025 13.5 38.25 13.725 38.25 14.175V19.575C38.25 20.025 38.025 20.25 37.575 20.25H32.175C31.725 20.25 31.5 20.475 31.5 20.925Z" stroke="#2447F9" stroke-width="4" stroke-miterlimit="10" stroke-linecap="round"/>
<path d="M33.75 49.5H20.25C9 49.5 4.5 45 4.5 33.75V20.25C4.5 9 9 4.5 20.25 4.5H33.75C45 4.5 49.5 9 49.5 20.25V33.75C49.5 45 45 49.5 33.75 49.5Z" stroke="#2447F9" stroke-width="4" stroke-linecap="round" stroke-linejoin="round"/>
</svg>
