<svg width="44" height="44" viewBox="0 0 44 44" fill="none" xmlns="http://www.w3.org/2000/svg">
<path d="M40.3334 31.5334C40.3334 33.1834 39.8751 34.7417 39.0501 36.0617C37.5284 38.61 34.7417 40.3334 31.5334 40.3334C28.3251 40.3334 25.5201 38.61 24.0167 36.0617C23.2101 34.7417 22.7334 33.1834 22.7334 31.5334C22.7334 26.675 26.6751 22.7334 31.5334 22.7334C36.3917 22.7334 40.3334 26.675 40.3334 31.5334Z" stroke="white" stroke-width="4" stroke-miterlimit="10" stroke-linecap="round" stroke-linejoin="round"/>
<path d="M28.1055 31.5334L30.2688 33.6968L34.9621 29.3701" stroke="white" stroke-width="4" stroke-linecap="round" stroke-linejoin="round"/>
<path d="M40.3337 15.9317C40.3337 19.5434 39.3987 22.7333 37.932 25.5017C36.3187 23.7967 34.0453 22.7334 31.5337 22.7334C26.6753 22.7334 22.7337 26.6751 22.7337 31.5334C22.7337 33.7884 23.5953 35.8418 24.9887 37.4001C24.3103 37.7118 23.687 37.9684 23.137 38.1517C22.5137 38.3717 21.487 38.3717 20.8637 38.1517C15.547 36.3367 3.66699 28.7651 3.66699 15.9317C3.66699 10.2667 8.23199 5.68335 13.8603 5.68335C17.1787 5.68335 20.1487 7.29676 22.0003 9.77176C23.852 7.29676 26.822 5.68335 30.1403 5.68335C35.7687 5.68335 40.3337 10.2667 40.3337 15.9317Z" stroke="white" stroke-width="4" stroke-linecap="round" stroke-linejoin="round"/>
</svg>
