<svg width="62" height="62" viewBox="0 0 62 62" fill="none" xmlns="http://www.w3.org/2000/svg">
<path d="M46.6032 35.0041C45.5182 36.0633 44.8983 37.5875 45.0533 39.215C45.2858 42.005 47.8433 44.0458 50.6333 44.0458H55.5416V47.12C55.5416 52.4675 51.1758 56.8333 45.8283 56.8333H19.7108C20.5116 56.1617 21.2091 55.335 21.7516 54.405C22.7074 52.855 23.2499 51.0208 23.2499 49.0833C23.2499 43.3742 18.6258 38.75 12.9166 38.75C10.4883 38.75 8.24075 39.6025 6.45825 41.0234V29.7342C6.45825 24.3867 10.8241 20.0208 16.1716 20.0208H45.8283C51.1758 20.0208 55.5416 24.3867 55.5416 29.7342V33.4542H50.3232C48.8766 33.4542 47.5591 34.0225 46.6032 35.0041Z" stroke="white" stroke-width="5" stroke-linecap="round" stroke-linejoin="round"/>
<path d="M6.45825 32.0591V20.2535C6.45825 17.1793 8.34408 14.4408 11.2116 13.3558L31.7232 5.60584C34.9266 4.39167 38.3624 6.76841 38.3624 10.2042V20.0209" stroke="white" stroke-width="5" stroke-linecap="round" stroke-linejoin="round"/>
<path d="M58.2768 36.0896V41.4114C58.2768 42.8322 57.1402 43.9946 55.6935 44.0463H50.6302C47.8402 44.0463 45.2827 42.0055 45.0502 39.2155C44.8952 37.588 45.5152 36.0638 46.6002 35.0046C47.556 34.023 48.8735 33.4547 50.3202 33.4547H55.6935C57.1402 33.5063 58.2768 34.6687 58.2768 36.0896Z" stroke="white" stroke-width="5" stroke-linecap="round" stroke-linejoin="round"/>
<path d="M18.0833 31H36.1666" stroke="white" stroke-width="5" stroke-linecap="round" stroke-linejoin="round"/>
<path d="M23.2499 49.0833C23.2499 51.0208 22.7074 52.855 21.7516 54.405C21.2091 55.335 20.5116 56.1617 19.7108 56.8333C17.9024 58.4608 15.5258 59.4167 12.9166 59.4167C9.14492 59.4167 5.86409 57.4017 4.08159 54.405C3.12576 52.855 2.58325 51.0208 2.58325 49.0833C2.58325 45.8283 4.08159 42.9092 6.45825 41.0233C8.24075 39.6025 10.4883 38.75 12.9166 38.75C18.6258 38.75 23.2499 43.3742 23.2499 49.0833Z" stroke="white" stroke-width="5" stroke-miterlimit="10" stroke-linecap="round" stroke-linejoin="round"/>
<path d="M8.89014 49.0821L11.4476 51.6395L16.9501 46.5504" stroke="white" stroke-width="5" stroke-linecap="round" stroke-linejoin="round"/>
</svg>
