<svg width="30" height="30" viewBox="0 0 30 30" fill="none" xmlns="http://www.w3.org/2000/svg">
<path d="M27.4749 14.2625C27.0499 7.0125 20.4624 1.42501 12.8749 2.67501C7.64987 3.53751 3.46238 7.77499 2.64988 13C2.17488 16.025 2.7999 18.8875 4.16241 21.25L3.04989 25.3875C2.79989 26.325 3.66236 27.175 4.58736 26.9125L8.66237 25.7875C10.5124 26.875 12.6749 27.5 14.9874 27.5C22.0374 27.5 27.8874 21.2875 27.4749 14.2625ZM21.0999 19.65C20.9874 19.875 20.8499 20.0875 20.6749 20.2875C20.3624 20.625 20.0248 20.875 19.6498 21.025C19.2748 21.1875 18.8624 21.2625 18.4249 21.2625C17.7874 21.2625 17.0999 21.1125 16.3874 20.8C15.6624 20.4875 14.9499 20.075 14.2374 19.5625C13.5124 19.0375 12.8374 18.45 12.1874 17.8125C11.5374 17.1625 10.9624 16.475 10.4374 15.7625C9.92485 15.05 9.51238 14.3375 9.21238 13.625C8.91238 12.9125 8.7624 12.225 8.7624 11.575C8.7624 11.15 8.83739 10.7375 8.98739 10.3625C9.13739 9.97501 9.37491 9.62501 9.71241 9.31251C10.1124 8.91251 10.5499 8.72501 11.0124 8.72501C11.1874 8.72501 11.3623 8.7625 11.5248 8.8375C11.6873 8.9125 11.8374 9.025 11.9499 9.1875L13.3998 11.2375C13.5123 11.4 13.5999 11.5375 13.6499 11.675C13.7124 11.8125 13.7374 11.9375 13.7374 12.0625C13.7374 12.2125 13.6874 12.3625 13.5999 12.5125C13.5124 12.6625 13.3999 12.8125 13.2499 12.9625L12.7748 13.4625C12.6998 13.5375 12.6749 13.6125 12.6749 13.7125C12.6749 13.7625 12.6874 13.8125 12.6999 13.8625C12.7249 13.9125 12.7374 13.95 12.7499 13.9875C12.8624 14.2 13.0624 14.4625 13.3374 14.7875C13.6249 15.1125 13.9249 15.45 14.2499 15.775C14.5874 16.1125 14.9124 16.4125 15.2499 16.7C15.5749 16.975 15.8499 17.1625 16.0624 17.275C16.0999 17.2875 16.1374 17.3125 16.1749 17.325C16.2249 17.35 16.2749 17.35 16.3374 17.35C16.4499 17.35 16.5249 17.3125 16.5999 17.2375L17.0749 16.7625C17.2374 16.6 17.3874 16.4875 17.5249 16.4125C17.6749 16.325 17.8124 16.275 17.9749 16.275C18.0999 16.275 18.2249 16.3 18.3624 16.3625C18.4999 16.425 18.6499 16.5 18.7999 16.6125L20.8749 18.0875C21.0374 18.2 21.1499 18.3375 21.2249 18.4875C21.2874 18.65 21.3249 18.8 21.3249 18.975C21.2499 19.1875 21.1999 19.425 21.0999 19.65Z" fill="black"/>
</svg>
