<svg width="62" height="62" viewBox="0 0 62 62" fill="none" xmlns="http://www.w3.org/2000/svg">
<path d="M20.6667 5.16666V12.9167" stroke="white" stroke-width="5" stroke-miterlimit="10" stroke-linecap="round" stroke-linejoin="round"/>
<path d="M41.3333 5.16666V12.9167" stroke="white" stroke-width="5" stroke-miterlimit="10" stroke-linecap="round" stroke-linejoin="round"/>
<path d="M9.04175 23.4825H52.9584" stroke="white" stroke-width="5" stroke-miterlimit="10" stroke-linecap="round" stroke-linejoin="round"/>
<path d="M56.8334 49.0833C56.8334 51.0208 56.2909 52.855 55.3351 54.405C53.5526 57.4017 50.2717 59.4167 46.5001 59.4167C43.8909 59.4167 41.5143 58.4608 39.7059 56.8333C38.9051 56.1617 38.2076 55.335 37.6651 54.405C36.7093 52.855 36.1667 51.0208 36.1667 49.0833C36.1667 43.3742 40.7909 38.75 46.5001 38.75C49.6001 38.75 52.3642 40.1191 54.2501 42.2633C55.8517 44.0975 56.8334 46.4742 56.8334 49.0833Z" stroke="white" stroke-width="5" stroke-miterlimit="10" stroke-linecap="round" stroke-linejoin="round"/>
<path d="M42.47 49.0833L45.0275 51.6408L50.53 46.5516" stroke="white" stroke-width="5" stroke-linecap="round" stroke-linejoin="round"/>
<path d="M54.25 21.9583V42.2633C52.3642 40.1191 49.6 38.75 46.5 38.75C40.7908 38.75 36.1667 43.3742 36.1667 49.0833C36.1667 51.0208 36.7092 52.855 37.665 54.405C38.2075 55.335 38.905 56.1617 39.7058 56.8333H20.6667C11.625 56.8333 7.75 51.6667 7.75 43.9167V21.9583C7.75 14.2083 11.625 9.04166 20.6667 9.04166H41.3333C50.375 9.04166 54.25 14.2083 54.25 21.9583Z" stroke="white" stroke-width="5" stroke-miterlimit="10" stroke-linecap="round" stroke-linejoin="round"/>
<path d="M30.9884 35.3917H31.0116" stroke="white" stroke-width="5" stroke-linecap="round" stroke-linejoin="round"/>
<path d="M21.4269 35.3917H21.4501" stroke="white" stroke-width="5" stroke-linecap="round" stroke-linejoin="round"/>
<path d="M21.4269 43.1417H21.4501" stroke="white" stroke-width="5" stroke-linecap="round" stroke-linejoin="round"/>
</svg>
