<svg width="28" height="28" viewBox="0 0 28 28" fill="none" xmlns="http://www.w3.org/2000/svg">
<path d="M13.9997 25.6667C20.443 25.6667 25.6663 20.4433 25.6663 14C25.6663 7.55669 20.443 2.33334 13.9997 2.33334C7.55635 2.33334 2.33301 7.55669 2.33301 14C2.33301 20.4433 7.55635 25.6667 13.9997 25.6667Z" stroke="white" stroke-width="2" stroke-linecap="round" stroke-linejoin="round"/>
<path d="M9.33353 3.5H10.5002C8.2252 10.3133 8.2252 17.6867 10.5002 24.5H9.33353" stroke="white" stroke-width="2" stroke-linecap="round" stroke-linejoin="round"/>
<path d="M17.5 3.5C19.775 10.3133 19.775 17.6867 17.5 24.5" stroke="white" stroke-width="2" stroke-linecap="round" stroke-linejoin="round"/>
<path d="M3.5 18.6667V17.5C10.3133 19.775 17.6867 19.775 24.5 17.5V18.6667" stroke="white" stroke-width="2" stroke-linecap="round" stroke-linejoin="round"/>
<path d="M3.5 10.5C10.3133 8.22501 17.6867 8.22501 24.5 10.5" stroke="white" stroke-width="2" stroke-linecap="round" stroke-linejoin="round"/>
</svg>
