<svg width="30" height="30" viewBox="0 0 30 30" fill="none" xmlns="http://www.w3.org/2000/svg">
<path d="M25.7763 10.5625C24.4638 4.7875 19.4263 2.1875 15.0013 2.1875C15.0013 2.1875 15.0013 2.1875 14.9888 2.1875C10.5763 2.1875 5.52634 4.775 4.21384 10.55C2.75134 17 6.70134 22.4625 10.2763 25.9C11.6013 27.175 13.3013 27.8125 15.0013 27.8125C16.7013 27.8125 18.4013 27.175 19.7138 25.9C23.2888 22.4625 27.2388 17.0125 25.7763 10.5625ZM15.0013 16.825C12.8263 16.825 11.0638 15.0625 11.0638 12.8875C11.0638 10.7125 12.8263 8.95 15.0013 8.95C17.1763 8.95 18.9388 10.7125 18.9388 12.8875C18.9388 15.0625 17.1763 16.825 15.0013 16.825Z" fill="#292D32"/>
</svg>
