<svg width="30" height="30" viewBox="0 0 30 30" fill="none" xmlns="http://www.w3.org/2000/svg">
<path d="M26.2125 1.25H22.5375C20.95 1.25 20 2.2 20 3.7875V7.4625C20 9.05 20.95 10 22.5375 10H26.2125C27.8 10 28.75 9.05 28.75 7.4625V3.7875C28.75 2.2 27.8 1.25 26.2125 1.25ZM26.4875 5.3875C26.3375 5.5375 26.1375 5.6125 25.9375 5.6125C25.7375 5.6125 25.5375 5.5375 25.3875 5.3875L25.1625 5.1625V7.9625C25.1625 8.4 24.8125 8.75 24.375 8.75C23.9375 8.75 23.5875 8.4 23.5875 7.9625V5.1625L23.3625 5.3875C23.0625 5.6875 22.5625 5.6875 22.2625 5.3875C21.9625 5.0875 21.9625 4.5875 22.2625 4.2875L23.825 2.725C23.8875 2.6625 23.975 2.6125 24.0625 2.575C24.0875 2.5625 24.1125 2.5625 24.1375 2.55C24.2 2.525 24.2625 2.5125 24.3375 2.5125C24.3625 2.5125 24.3875 2.5125 24.4125 2.5125C24.5 2.5125 24.575 2.525 24.6625 2.5625C24.675 2.5625 24.675 2.5625 24.6875 2.5625C24.775 2.6 24.85 2.65 24.9125 2.7125C24.925 2.725 24.925 2.725 24.9375 2.725L26.5 4.2875C26.8 4.5875 26.8 5.0875 26.4875 5.3875Z" fill="#292D32"/>
<path d="M11.2499 12.975C12.893 12.975 14.2249 11.6431 14.2249 10C14.2249 8.35698 12.893 7.02502 11.2499 7.02502C9.60686 7.02502 8.2749 8.35698 8.2749 10C8.2749 11.6431 9.60686 12.975 11.2499 12.975Z" fill="#292D32"/>
<path d="M26.2125 10H25.625V15.7625L25.4625 15.625C24.4875 14.7875 22.9125 14.7875 21.9375 15.625L16.7375 20.0875C15.7625 20.925 14.1875 20.925 13.2125 20.0875L12.7875 19.7375C11.9 18.9625 10.4875 18.8875 9.4875 19.5625L4.8125 22.7C4.5375 22 4.375 21.1875 4.375 20.2375V9.7625C4.375 6.2375 6.2375 4.375 9.7625 4.375H20V3.7875C20 3.2875 20.0875 2.8625 20.2875 2.5H9.7625C5.2125 2.5 2.5 5.2125 2.5 9.7625V20.2375C2.5 21.6 2.7375 22.7875 3.2 23.7875C4.275 26.1625 6.575 27.5 9.7625 27.5H20.2375C24.7875 27.5 27.5 24.7875 27.5 20.2375V9.7125C27.1375 9.9125 26.7125 10 26.2125 10Z" fill="#292D32"/>
</svg>
