<svg width="61" height="61" viewBox="0 0 61 61" fill="none" xmlns="http://www.w3.org/2000/svg">
<path d="M39.4213 7.1929H21.5788C15.2501 7.1929 13.8522 10.3446 13.0388 14.2079L10.1667 27.9583H50.8334L47.9613 14.2079C47.148 10.3446 45.7501 7.1929 39.4213 7.1929Z" stroke="white" stroke-width="5" stroke-linecap="round" stroke-linejoin="round"/>
<path d="M55.8912 50.3758C56.1708 53.3496 53.7816 55.9167 50.7316 55.9167H45.9533C43.2083 55.9167 42.827 54.7475 42.3441 53.2988L41.8358 51.7738C41.1241 49.6896 40.6666 48.2917 37.0066 48.2917H23.9933C20.3333 48.2917 19.7995 49.8675 19.1641 51.7738L18.6558 53.2988C18.1729 54.7475 17.7916 55.9167 15.0466 55.9167H10.2683C7.21827 55.9167 4.82911 53.3496 5.10869 50.3758L6.53202 34.8971C6.88786 31.0846 7.62494 27.9583 14.2841 27.9583H46.7158C53.3749 27.9583 54.112 31.0846 54.4679 34.8971L55.8912 50.3758Z" stroke="white" stroke-width="5" stroke-linecap="round" stroke-linejoin="round"/>
<path d="M10.1667 20.3333H7.625" stroke="white" stroke-width="5" stroke-linecap="round" stroke-linejoin="round"/>
<path d="M53.3749 20.3333H50.8333" stroke="white" stroke-width="5" stroke-linecap="round" stroke-linejoin="round"/>
<path d="M30.5 7.625V12.7083" stroke="white" stroke-width="5" stroke-linecap="round" stroke-linejoin="round"/>
<path d="M26.6875 12.7083H34.3125" stroke="white" stroke-width="5" stroke-linecap="round" stroke-linejoin="round"/>
<path d="M15.25 38.125H22.875" stroke="white" stroke-width="5" stroke-linecap="round" stroke-linejoin="round"/>
<path d="M38.125 38.125H45.75" stroke="white" stroke-width="5" stroke-linecap="round" stroke-linejoin="round"/>
</svg>
