<svg width="70" height="70" viewBox="0 0 70 70" fill="none" xmlns="http://www.w3.org/2000/svg">
<path d="M20.4168 5.83334H17.5002C8.75016 5.83334 5.8335 11.0542 5.8335 17.5V20.4167V61.25C5.8335 63.6708 8.57516 65.0417 10.5002 63.5833L15.4877 59.85C16.6543 58.975 18.2877 59.0917 19.3377 60.1417L24.1793 65.0125C25.3168 66.15 27.1835 66.15 28.321 65.0125L33.221 60.1125C34.2418 59.0917 35.8752 58.975 37.0127 59.85L42.0002 63.5833C43.9252 65.0125 46.6668 63.6417 46.6668 61.25V11.6667C46.6668 8.45834 49.2918 5.83334 52.5002 5.83334H20.4168ZM17.4127 40.8625C15.8085 40.8625 14.496 39.55 14.496 37.9458C14.496 36.3417 15.8085 35.0292 17.4127 35.0292C19.0168 35.0292 20.3293 36.3417 20.3293 37.9458C20.3293 39.55 19.0168 40.8625 17.4127 40.8625ZM17.4127 29.1958C15.8085 29.1958 14.496 27.8833 14.496 26.2792C14.496 24.675 15.8085 23.3625 17.4127 23.3625C19.0168 23.3625 20.3293 24.675 20.3293 26.2792C20.3293 27.8833 19.0168 29.1958 17.4127 29.1958ZM35.0002 40.1333H26.2502C25.0543 40.1333 24.0627 39.1417 24.0627 37.9458C24.0627 36.75 25.0543 35.7583 26.2502 35.7583H35.0002C36.196 35.7583 37.1877 36.75 37.1877 37.9458C37.1877 39.1417 36.196 40.1333 35.0002 40.1333ZM35.0002 28.4667H26.2502C25.0543 28.4667 24.0627 27.475 24.0627 26.2792C24.0627 25.0833 25.0543 24.0917 26.2502 24.0917H35.0002C36.196 24.0917 37.1877 25.0833 37.1877 26.2792C37.1877 27.475 36.196 28.4667 35.0002 28.4667Z" fill="#2447F9"/>
<path d="M52.529 5.83334V10.2083C54.454 10.2083 56.2915 10.9958 57.6332 12.3083C59.0332 13.7375 59.7915 15.575 59.7915 17.5V24.5583C59.7915 26.7167 58.829 27.7083 56.6415 27.7083H51.0415V11.6958C51.0415 10.8792 51.7123 10.2083 52.529 10.2083V5.83334ZM52.529 5.83334C49.2915 5.83334 46.6665 8.45834 46.6665 11.6958V32.0833H56.6415C61.2498 32.0833 64.1665 29.1667 64.1665 24.5583V17.5C64.1665 14.2917 62.854 11.375 60.754 9.24584C58.6248 7.14584 55.7373 5.8625 52.529 5.83334C52.529 5.83334 52.5582 5.83334 52.529 5.83334Z" fill="#2447F9"/>
</svg>
