<svg width="30" height="30" viewBox="0 0 30 30" fill="none" xmlns="http://www.w3.org/2000/svg">
<path d="M19.725 2.5H10.275C5.55 2.5 4.375 3.7625 4.375 8.8V22.875C4.375 26.2 6.2 26.9875 8.4125 24.6125L8.425 24.6C9.45 23.5125 11.0125 23.6 11.9 24.7875L13.1625 26.475C14.175 27.8125 15.8125 27.8125 16.825 26.475L18.0875 24.7875C18.9875 23.5875 20.55 23.5 21.575 24.6C23.8 26.975 25.6125 26.1875 25.6125 22.8625V8.8C25.625 3.7625 24.45 2.5 19.725 2.5ZM18.75 14.6875H11.25C10.7375 14.6875 10.3125 14.2625 10.3125 13.75C10.3125 13.2375 10.7375 12.8125 11.25 12.8125H18.75C19.2625 12.8125 19.6875 13.2375 19.6875 13.75C19.6875 14.2625 19.2625 14.6875 18.75 14.6875ZM20 9.6875H10C9.4875 9.6875 9.0625 9.2625 9.0625 8.75C9.0625 8.2375 9.4875 7.8125 10 7.8125H20C20.5125 7.8125 20.9375 8.2375 20.9375 8.75C20.9375 9.2625 20.5125 9.6875 20 9.6875Z" fill="#292D32"/>
</svg>
