<svg width="54" height="54" viewBox="0 0 54 54" fill="none" xmlns="http://www.w3.org/2000/svg">
<path d="M20.25 49.5H33.75C45 49.5 49.5 45 49.5 33.75V20.25C49.5 9 45 4.5 33.75 4.5H20.25C9 4.5 4.5 9 4.5 20.25V33.75C4.5 45 9 49.5 20.25 49.5Z" stroke="#2447F9" stroke-width="5" stroke-linecap="round" stroke-linejoin="round"/>
<path d="M27 34.875C31.3492 34.875 34.875 31.3492 34.875 27C34.875 22.6508 31.3492 19.125 27 19.125C22.6508 19.125 19.125 22.6508 19.125 27C19.125 31.3492 22.6508 34.875 27 34.875Z" stroke="#2447F9" stroke-width="5" stroke-linecap="round" stroke-linejoin="round"/>
<path d="M39.6813 15.75H39.7073" stroke="#2447F9" stroke-width="5" stroke-linecap="round" stroke-linejoin="round"/>
</svg>
