<svg width="100" height="100" viewBox="0 0 100 100" fill="none" xmlns="http://www.w3.org/2000/svg">
<circle cx="50" cy="50" r="50" fill="#2447F9"/>
<path d="M54.315 37.145H42.4575C38.2725 37.145 37.3275 39.2375 36.81 41.825L34.8975 50.9375H61.8975L59.985 41.825C59.4225 39.2375 58.5 37.145 54.315 37.145Z" stroke="white" stroke-width="4" stroke-linecap="round" stroke-linejoin="round"/>
<path d="M65.2275 65.81C65.4075 67.79 63.8325 69.5 61.8075 69.5H58.635C56.8125 69.5 56.565 68.7125 56.2275 67.7675L55.89 66.7551C55.4175 65.3826 55.1025 64.4375 52.6725 64.4375H44.0325C41.6025 64.4375 41.2425 65.4951 40.815 66.7551L40.4775 67.7675C40.1625 68.735 39.915 69.5 38.07 69.5H34.8975C32.8725 69.5 31.275 67.79 31.4775 65.81L32.4225 55.5275C32.67 52.985 33.1425 50.915 37.575 50.915H59.1075C63.54 50.915 64.0125 52.985 64.26 55.5275L65.2275 65.81Z" stroke="white" stroke-width="4" stroke-linecap="round" stroke-linejoin="round"/>
<path d="M34.875 45.875H33.1875" stroke="white" stroke-width="4" stroke-linecap="round" stroke-linejoin="round"/>
<path d="M63.5625 45.875H61.875" stroke="white" stroke-width="4" stroke-linecap="round" stroke-linejoin="round"/>
<path d="M38.25 57.6875H43.3125" stroke="white" stroke-width="4" stroke-linecap="round" stroke-linejoin="round"/>
<path d="M53.4375 57.6875H58.5" stroke="white" stroke-width="4" stroke-linecap="round" stroke-linejoin="round"/>
<path d="M69.0975 39.6649C69.7275 38.2024 69.5025 36.2225 68.3325 34.49C67.185 32.7575 65.43 31.79 63.8325 31.8125" stroke="white" stroke-width="4" stroke-linecap="round" stroke-linejoin="round"/>
<path d="M76.095 41.8925C77.04 38.495 76.3649 34.3325 73.9574 30.7325C71.5499 27.1325 67.9499 24.9275 64.4399 24.5" stroke="white" stroke-width="4" stroke-linecap="round" stroke-linejoin="round"/>
</svg>
