<svg width="156" height="156" viewBox="0 0 156 156" fill="none" xmlns="http://www.w3.org/2000/svg">
<circle cx="77.7877" cy="77.7877" r="77.7877" fill="#2447F9"/>
<path d="M80.6349 62.4557H62.1875C55.6767 62.4557 54.2065 65.7112 53.4014 69.7367L50.426 83.9135H92.4314L89.456 69.7367C88.5809 65.7112 87.1457 62.4557 80.6349 62.4557Z" stroke="white" stroke-width="5" stroke-linecap="round" stroke-linejoin="round"/>
<path d="M97.6121 107.051C97.8921 110.132 95.4418 112.792 92.2914 112.792H87.3557C84.5204 112.792 84.1353 111.567 83.6103 110.097L83.0852 108.522C82.3501 106.386 81.86 104.916 78.0796 104.916H64.6378C60.8574 104.916 60.2973 106.562 59.6322 108.522L59.1071 110.097C58.6171 111.602 58.232 112.792 55.3616 112.792H50.426C47.2756 112.792 44.7903 110.132 45.1053 107.051L46.5755 91.0544C46.9606 87.0988 47.6956 83.8785 54.5915 83.8785H88.0908C94.9867 83.8785 95.7218 87.0988 96.1068 91.0544L97.6121 107.051Z" stroke="white" stroke-width="5" stroke-linecap="round" stroke-linejoin="round"/>
<path d="M50.391 76.0375H47.7656" stroke="white" stroke-width="5" stroke-linecap="round" stroke-linejoin="round"/>
<path d="M95.0218 76.0375H92.3965" stroke="white" stroke-width="5" stroke-linecap="round" stroke-linejoin="round"/>
<path d="M55.6416 94.4149H63.5176" stroke="white" stroke-width="5" stroke-linecap="round" stroke-linejoin="round"/>
<path d="M79.2698 94.4149H87.1458" stroke="white" stroke-width="5" stroke-linecap="round" stroke-linejoin="round"/>
<path d="M103.633 66.3762C104.613 64.1009 104.263 61.0205 102.443 58.3252C100.657 55.6299 97.927 54.1247 95.4417 54.1597" stroke="white" stroke-width="5" stroke-linecap="round" stroke-linejoin="round"/>
<path d="M114.519 69.8417C115.989 64.556 114.939 58.0803 111.194 52.4796C107.448 46.8789 101.848 43.4483 96.387 42.7833" stroke="white" stroke-width="5" stroke-linecap="round" stroke-linejoin="round"/>
</svg>
