<svg width="492" height="100" viewBox="0 0 492 100" fill="none" xmlns="http://www.w3.org/2000/svg">
<circle cx="50" cy="50" r="50" fill="#2447F9"/>
<path d="M54.315 37.145H42.4575C38.2725 37.145 37.3275 39.2375 36.81 41.825L34.8975 50.9375H61.8975L59.985 41.825C59.4225 39.2375 58.5 37.145 54.315 37.145Z" stroke="white" stroke-width="4" stroke-linecap="round" stroke-linejoin="round"/>
<path d="M65.2275 65.81C65.4075 67.79 63.8325 69.5 61.8075 69.5H58.635C56.8125 69.5 56.565 68.7125 56.2275 67.7675L55.89 66.7551C55.4175 65.3826 55.1025 64.4375 52.6725 64.4375H44.0325C41.6025 64.4375 41.2425 65.4951 40.815 66.7551L40.4775 67.7675C40.1625 68.735 39.915 69.5 38.07 69.5H34.8975C32.8725 69.5 31.275 67.79 31.4775 65.81L32.4225 55.5275C32.67 52.985 33.1425 50.915 37.575 50.915H59.1075C63.54 50.915 64.0125 52.985 64.26 55.5275L65.2275 65.81Z" stroke="white" stroke-width="4" stroke-linecap="round" stroke-linejoin="round"/>
<path d="M34.875 45.875H33.1875" stroke="white" stroke-width="4" stroke-linecap="round" stroke-linejoin="round"/>
<path d="M63.5625 45.875H61.875" stroke="white" stroke-width="4" stroke-linecap="round" stroke-linejoin="round"/>
<path d="M38.25 57.6875H43.3125" stroke="white" stroke-width="4" stroke-linecap="round" stroke-linejoin="round"/>
<path d="M53.4375 57.6875H58.5" stroke="white" stroke-width="4" stroke-linecap="round" stroke-linejoin="round"/>
<path d="M69.0975 39.6649C69.7275 38.2024 69.5025 36.2225 68.3325 34.49C67.185 32.7575 65.43 31.79 63.8325 31.8125" stroke="white" stroke-width="4" stroke-linecap="round" stroke-linejoin="round"/>
<path d="M76.095 41.8925C77.04 38.495 76.3649 34.3325 73.9574 30.7325C71.5499 27.1325 67.9499 24.9275 64.4399 24.5" stroke="white" stroke-width="4" stroke-linecap="round" stroke-linejoin="round"/>
<path d="M129.328 31.576C129.328 32.552 129.104 33.448 128.656 34.264C128.208 35.064 127.52 35.712 126.592 36.208C125.664 36.704 124.512 36.952 123.136 36.952H120.592V43H116.488V26.152H123.136C124.48 26.152 125.616 26.384 126.544 26.848C127.472 27.312 128.168 27.952 128.632 28.768C129.096 29.584 129.328 30.52 129.328 31.576ZM122.824 33.688C123.608 33.688 124.192 33.504 124.576 33.136C124.96 32.768 125.152 32.248 125.152 31.576C125.152 30.904 124.96 30.384 124.576 30.016C124.192 29.648 123.608 29.464 122.824 29.464H120.592V33.688H122.824ZM130.649 36.28C130.649 34.904 130.905 33.696 131.417 32.656C131.945 31.616 132.657 30.816 133.553 30.256C134.449 29.696 135.449 29.416 136.553 29.416C137.497 29.416 138.321 29.608 139.025 29.992C139.745 30.376 140.297 30.88 140.681 31.504V29.608H144.785V43H140.681V41.104C140.281 41.728 139.721 42.232 139.001 42.616C138.297 43 137.473 43.192 136.529 43.192C135.441 43.192 134.449 42.912 133.553 42.352C132.657 41.776 131.945 40.968 131.417 39.928C130.905 38.872 130.649 37.656 130.649 36.28ZM140.681 36.304C140.681 35.28 140.393 34.472 139.817 33.88C139.257 33.288 138.569 32.992 137.753 32.992C136.937 32.992 136.241 33.288 135.665 33.88C135.105 34.456 134.825 35.256 134.825 36.28C134.825 37.304 135.105 38.12 135.665 38.728C136.241 39.32 136.937 39.616 137.753 39.616C138.569 39.616 139.257 39.32 139.817 38.728C140.393 38.136 140.681 37.328 140.681 36.304ZM155.218 39.52V43H153.13C151.642 43 150.482 42.64 149.65 41.92C148.818 41.184 148.402 39.992 148.402 38.344V33.016H146.77V29.608H148.402V26.344H152.506V29.608H155.194V33.016H152.506V38.392C152.506 38.792 152.602 39.08 152.794 39.256C152.986 39.432 153.306 39.52 153.754 39.52H155.218ZM161.608 31.84C162.088 31.104 162.688 30.528 163.408 30.112C164.128 29.68 164.928 29.464 165.808 29.464V33.808H164.68C163.656 33.808 162.888 34.032 162.376 34.48C161.864 34.912 161.608 35.68 161.608 36.784V43H157.504V29.608H161.608V31.84ZM166.953 36.28C166.953 34.904 167.209 33.696 167.721 32.656C168.249 31.616 168.961 30.816 169.857 30.256C170.753 29.696 171.753 29.416 172.857 29.416C173.801 29.416 174.625 29.608 175.329 29.992C176.049 30.376 176.601 30.88 176.985 31.504V29.608H181.089V43H176.985V41.104C176.585 41.728 176.025 42.232 175.305 42.616C174.601 43 173.777 43.192 172.833 43.192C171.745 43.192 170.753 42.912 169.857 42.352C168.961 41.776 168.249 40.968 167.721 39.928C167.209 38.872 166.953 37.656 166.953 36.28ZM176.985 36.304C176.985 35.28 176.697 34.472 176.121 33.88C175.561 33.288 174.873 32.992 174.057 32.992C173.241 32.992 172.545 33.288 171.969 33.88C171.409 34.456 171.129 35.256 171.129 36.28C171.129 37.304 171.409 38.12 171.969 38.728C172.545 39.32 173.241 39.616 174.057 39.616C174.873 39.616 175.561 39.32 176.121 38.728C176.697 38.136 176.985 37.328 176.985 36.304ZM201.264 26.152V29.44H196.8V43H192.696V29.44H188.232V26.152H201.264ZM207.428 31.84C207.908 31.104 208.508 30.528 209.228 30.112C209.948 29.68 210.748 29.464 211.628 29.464V33.808H210.5C209.476 33.808 208.708 34.032 208.196 34.48C207.684 34.912 207.428 35.68 207.428 36.784V43H203.324V29.608H207.428V31.84ZM212.774 36.28C212.774 34.904 213.03 33.696 213.542 32.656C214.07 31.616 214.782 30.816 215.678 30.256C216.574 29.696 217.574 29.416 218.678 29.416C219.622 29.416 220.446 29.608 221.15 29.992C221.87 30.376 222.422 30.88 222.806 31.504V29.608H226.91V43H222.806V41.104C222.406 41.728 221.846 42.232 221.126 42.616C220.422 43 219.598 43.192 218.654 43.192C217.566 43.192 216.574 42.912 215.678 42.352C214.782 41.776 214.07 40.968 213.542 39.928C213.03 38.872 212.774 37.656 212.774 36.28ZM222.806 36.304C222.806 35.28 222.518 34.472 221.942 33.88C221.382 33.288 220.694 32.992 219.878 32.992C219.062 32.992 218.366 33.288 217.79 33.88C217.23 34.456 216.95 35.256 216.95 36.28C216.95 37.304 217.23 38.12 217.79 38.728C218.366 39.32 219.062 39.616 219.878 39.616C220.694 39.616 221.382 39.32 221.942 38.728C222.518 38.136 222.806 37.328 222.806 36.304ZM238.039 29.464C239.607 29.464 240.855 29.976 241.783 31C242.727 32.008 243.199 33.4 243.199 35.176V43H239.119V35.728C239.119 34.832 238.887 34.136 238.423 33.64C237.959 33.144 237.335 32.896 236.551 32.896C235.767 32.896 235.143 33.144 234.679 33.64C234.215 34.136 233.983 34.832 233.983 35.728V43H229.879V29.608H233.983V31.384C234.399 30.792 234.959 30.328 235.663 29.992C236.367 29.64 237.159 29.464 238.039 29.464ZM251.499 43.192C250.331 43.192 249.291 42.992 248.379 42.592C247.467 42.192 246.747 41.648 246.219 40.96C245.691 40.256 245.395 39.472 245.331 38.608H249.387C249.435 39.072 249.651 39.448 250.035 39.736C250.419 40.024 250.891 40.168 251.451 40.168C251.963 40.168 252.355 40.072 252.627 39.88C252.915 39.672 253.059 39.408 253.059 39.088C253.059 38.704 252.859 38.424 252.459 38.248C252.059 38.056 251.411 37.848 250.515 37.624C249.555 37.4 248.755 37.168 248.115 36.928C247.475 36.672 246.923 36.28 246.459 35.752C245.995 35.208 245.763 34.48 245.763 33.568C245.763 32.8 245.971 32.104 246.387 31.48C246.819 30.84 247.443 30.336 248.259 29.968C249.091 29.6 250.075 29.416 251.211 29.416C252.891 29.416 254.211 29.832 255.171 30.664C256.147 31.496 256.707 32.6 256.851 33.976H253.059C252.995 33.512 252.787 33.144 252.435 32.872C252.099 32.6 251.651 32.464 251.091 32.464C250.611 32.464 250.243 32.56 249.987 32.752C249.731 32.928 249.603 33.176 249.603 33.496C249.603 33.88 249.803 34.168 250.203 34.36C250.619 34.552 251.259 34.744 252.123 34.936C253.115 35.192 253.923 35.448 254.547 35.704C255.171 35.944 255.715 36.344 256.179 36.904C256.659 37.448 256.907 38.184 256.923 39.112C256.923 39.896 256.699 40.6 256.251 41.224C255.819 41.832 255.187 42.312 254.355 42.664C253.539 43.016 252.587 43.192 251.499 43.192ZM263.537 31.504C263.937 30.88 264.489 30.376 265.193 29.992C265.897 29.608 266.721 29.416 267.665 29.416C268.769 29.416 269.769 29.696 270.665 30.256C271.561 30.816 272.265 31.616 272.777 32.656C273.305 33.696 273.569 34.904 273.569 36.28C273.569 37.656 273.305 38.872 272.777 39.928C272.265 40.968 271.561 41.776 270.665 42.352C269.769 42.912 268.769 43.192 267.665 43.192C266.737 43.192 265.913 43 265.193 42.616C264.489 42.232 263.937 41.736 263.537 41.128V49.384H259.433V29.608H263.537V31.504ZM269.393 36.28C269.393 35.256 269.105 34.456 268.529 33.88C267.969 33.288 267.273 32.992 266.441 32.992C265.625 32.992 264.929 33.288 264.353 33.88C263.793 34.472 263.513 35.28 263.513 36.304C263.513 37.328 263.793 38.136 264.353 38.728C264.929 39.32 265.625 39.616 266.441 39.616C267.257 39.616 267.953 39.32 268.529 38.728C269.105 38.12 269.393 37.304 269.393 36.28ZM281.818 43.192C280.506 43.192 279.322 42.912 278.266 42.352C277.226 41.792 276.402 40.992 275.794 39.952C275.202 38.912 274.906 37.696 274.906 36.304C274.906 34.928 275.21 33.72 275.818 32.68C276.426 31.624 277.258 30.816 278.314 30.256C279.37 29.696 280.554 29.416 281.866 29.416C283.178 29.416 284.362 29.696 285.418 30.256C286.474 30.816 287.306 31.624 287.914 32.68C288.522 33.72 288.826 34.928 288.826 36.304C288.826 37.68 288.514 38.896 287.89 39.952C287.282 40.992 286.442 41.792 285.37 42.352C284.314 42.912 283.13 43.192 281.818 43.192ZM281.818 39.64C282.602 39.64 283.266 39.352 283.81 38.776C284.37 38.2 284.65 37.376 284.65 36.304C284.65 35.232 284.378 34.408 283.834 33.832C283.306 33.256 282.65 32.968 281.866 32.968C281.066 32.968 280.402 33.256 279.874 33.832C279.346 34.392 279.082 35.216 279.082 36.304C279.082 37.376 279.338 38.2 279.85 38.776C280.378 39.352 281.034 39.64 281.818 39.64ZM295.108 31.84C295.588 31.104 296.188 30.528 296.908 30.112C297.628 29.68 298.428 29.464 299.308 29.464V33.808H298.18C297.156 33.808 296.388 34.032 295.876 34.48C295.364 34.912 295.108 35.68 295.108 36.784V43H291.004V29.608H295.108V31.84ZM308.733 39.52V43H306.645C305.157 43 303.997 42.64 303.165 41.92C302.333 41.184 301.917 39.992 301.917 38.344V33.016H300.285V29.608H301.917V26.344H306.021V29.608H308.709V33.016H306.021V38.392C306.021 38.792 306.117 39.08 306.309 39.256C306.501 39.432 306.821 39.52 307.269 39.52H308.733ZM310.203 36.28C310.203 34.904 310.459 33.696 310.971 32.656C311.499 31.616 312.211 30.816 313.107 30.256C314.003 29.696 315.003 29.416 316.107 29.416C317.051 29.416 317.875 29.608 318.579 29.992C319.299 30.376 319.851 30.88 320.235 31.504V29.608H324.339V43H320.235V41.104C319.835 41.728 319.275 42.232 318.555 42.616C317.851 43 317.027 43.192 316.083 43.192C314.995 43.192 314.003 42.912 313.107 42.352C312.211 41.776 311.499 40.968 310.971 39.928C310.459 38.872 310.203 37.656 310.203 36.28ZM320.235 36.304C320.235 35.28 319.947 34.472 319.371 33.88C318.811 33.288 318.123 32.992 317.307 32.992C316.491 32.992 315.795 33.288 315.219 33.88C314.659 34.456 314.379 35.256 314.379 36.28C314.379 37.304 314.659 38.12 315.219 38.728C315.795 39.32 316.491 39.616 317.307 39.616C318.123 39.616 318.811 39.32 319.371 38.728C319.947 38.136 320.235 37.328 320.235 36.304ZM332.756 43.192C331.588 43.192 330.548 42.992 329.636 42.592C328.724 42.192 328.004 41.648 327.476 40.96C326.948 40.256 326.652 39.472 326.588 38.608H330.644C330.692 39.072 330.908 39.448 331.292 39.736C331.676 40.024 332.148 40.168 332.708 40.168C333.22 40.168 333.612 40.072 333.884 39.88C334.172 39.672 334.316 39.408 334.316 39.088C334.316 38.704 334.116 38.424 333.716 38.248C333.316 38.056 332.668 37.848 331.772 37.624C330.812 37.4 330.012 37.168 329.372 36.928C328.732 36.672 328.18 36.28 327.716 35.752C327.252 35.208 327.02 34.48 327.02 33.568C327.02 32.8 327.228 32.104 327.644 31.48C328.076 30.84 328.7 30.336 329.516 29.968C330.348 29.6 331.332 29.416 332.468 29.416C334.148 29.416 335.468 29.832 336.428 30.664C337.404 31.496 337.964 32.6 338.108 33.976H334.316C334.252 33.512 334.044 33.144 333.692 32.872C333.356 32.6 332.908 32.464 332.348 32.464C331.868 32.464 331.5 32.56 331.244 32.752C330.988 32.928 330.86 33.176 330.86 33.496C330.86 33.88 331.06 34.168 331.46 34.36C331.876 34.552 332.516 34.744 333.38 34.936C334.372 35.192 335.18 35.448 335.804 35.704C336.428 35.944 336.972 36.344 337.436 36.904C337.916 37.448 338.164 38.184 338.18 39.112C338.18 39.896 337.956 40.6 337.508 41.224C337.076 41.832 336.444 42.312 335.612 42.664C334.796 43.016 333.844 43.192 332.756 43.192ZM342.755 28.216C342.035 28.216 341.443 28.008 340.979 27.592C340.531 27.16 340.307 26.632 340.307 26.008C340.307 25.368 340.531 24.84 340.979 24.424C341.443 23.992 342.035 23.776 342.755 23.776C343.459 23.776 344.035 23.992 344.483 24.424C344.947 24.84 345.179 25.368 345.179 26.008C345.179 26.632 344.947 27.16 344.483 27.592C344.035 28.008 343.459 28.216 342.755 28.216ZM344.795 29.608V43H340.691V29.608H344.795ZM367.927 43H363.823L356.959 32.608V43H352.855V26.152H356.959L363.823 36.592V26.152H367.927V43ZM384.126 29.608V43H380.022V41.176C379.606 41.768 379.038 42.248 378.318 42.616C377.614 42.968 376.83 43.144 375.966 43.144C374.942 43.144 374.038 42.92 373.254 42.472C372.47 42.008 371.862 41.344 371.43 40.48C370.998 39.616 370.782 38.6 370.782 37.432V29.608H374.862V36.88C374.862 37.776 375.094 38.472 375.558 38.968C376.022 39.464 376.646 39.712 377.43 39.712C378.23 39.712 378.862 39.464 379.326 38.968C379.79 38.472 380.022 37.776 380.022 36.88V29.608H384.126ZM392.522 43.192C391.354 43.192 390.314 42.992 389.402 42.592C388.49 42.192 387.77 41.648 387.242 40.96C386.714 40.256 386.418 39.472 386.354 38.608H390.41C390.458 39.072 390.674 39.448 391.058 39.736C391.442 40.024 391.914 40.168 392.474 40.168C392.986 40.168 393.378 40.072 393.65 39.88C393.938 39.672 394.082 39.408 394.082 39.088C394.082 38.704 393.882 38.424 393.482 38.248C393.082 38.056 392.434 37.848 391.538 37.624C390.578 37.4 389.778 37.168 389.138 36.928C388.498 36.672 387.946 36.28 387.482 35.752C387.018 35.208 386.786 34.48 386.786 33.568C386.786 32.8 386.994 32.104 387.41 31.48C387.842 30.84 388.466 30.336 389.282 29.968C390.114 29.6 391.098 29.416 392.234 29.416C393.914 29.416 395.234 29.832 396.194 30.664C397.17 31.496 397.73 32.6 397.874 33.976H394.082C394.018 33.512 393.81 33.144 393.458 32.872C393.122 32.6 392.674 32.464 392.114 32.464C391.634 32.464 391.266 32.56 391.01 32.752C390.754 32.928 390.626 33.176 390.626 33.496C390.626 33.88 390.826 34.168 391.226 34.36C391.642 34.552 392.282 34.744 393.146 34.936C394.138 35.192 394.946 35.448 395.57 35.704C396.194 35.944 396.738 36.344 397.202 36.904C397.682 37.448 397.93 38.184 397.946 39.112C397.946 39.896 397.722 40.6 397.274 41.224C396.842 41.832 396.21 42.312 395.378 42.664C394.562 43.016 393.61 43.192 392.522 43.192ZM399.641 36.28C399.641 34.904 399.897 33.696 400.409 32.656C400.937 31.616 401.649 30.816 402.545 30.256C403.441 29.696 404.441 29.416 405.545 29.416C406.489 29.416 407.313 29.608 408.017 29.992C408.737 30.376 409.289 30.88 409.673 31.504V29.608H413.777V43H409.673V41.104C409.273 41.728 408.713 42.232 407.993 42.616C407.289 43 406.465 43.192 405.521 43.192C404.433 43.192 403.441 42.912 402.545 42.352C401.649 41.776 400.937 40.968 400.409 39.928C399.897 38.872 399.641 37.656 399.641 36.28ZM409.673 36.304C409.673 35.28 409.385 34.472 408.809 33.88C408.249 33.288 407.561 32.992 406.745 32.992C405.929 32.992 405.233 33.288 404.657 33.88C404.097 34.456 403.817 35.256 403.817 36.28C403.817 37.304 404.097 38.12 404.657 38.728C405.233 39.32 405.929 39.616 406.745 39.616C407.561 39.616 408.249 39.32 408.809 38.728C409.385 38.136 409.673 37.328 409.673 36.304ZM424.906 29.464C426.474 29.464 427.722 29.976 428.65 31C429.594 32.008 430.066 33.4 430.066 35.176V43H425.986V35.728C425.986 34.832 425.754 34.136 425.29 33.64C424.826 33.144 424.202 32.896 423.418 32.896C422.634 32.896 422.01 33.144 421.546 33.64C421.082 34.136 420.85 34.832 420.85 35.728V43H416.746V29.608H420.85V31.384C421.266 30.792 421.826 30.328 422.53 29.992C423.234 29.64 424.026 29.464 424.906 29.464ZM440.382 39.52V43H438.294C436.806 43 435.646 42.64 434.814 41.92C433.982 41.184 433.566 39.992 433.566 38.344V33.016H431.934V29.608H433.566V26.344H437.67V29.608H440.358V33.016H437.67V38.392C437.67 38.792 437.766 39.08 437.958 39.256C438.15 39.432 438.47 39.52 438.918 39.52H440.382ZM441.852 36.28C441.852 34.904 442.108 33.696 442.62 32.656C443.148 31.616 443.86 30.816 444.756 30.256C445.652 29.696 446.652 29.416 447.756 29.416C448.7 29.416 449.524 29.608 450.228 29.992C450.948 30.376 451.5 30.88 451.884 31.504V29.608H455.988V43H451.884V41.104C451.484 41.728 450.924 42.232 450.204 42.616C449.5 43 448.676 43.192 447.732 43.192C446.644 43.192 445.652 42.912 444.756 42.352C443.86 41.776 443.148 40.968 442.62 39.928C442.108 38.872 441.852 37.656 441.852 36.28ZM451.884 36.304C451.884 35.28 451.596 34.472 451.02 33.88C450.46 33.288 449.772 32.992 448.956 32.992C448.14 32.992 447.444 33.288 446.868 33.88C446.308 34.456 446.028 35.256 446.028 36.28C446.028 37.304 446.308 38.12 446.868 38.728C447.444 39.32 448.14 39.616 448.956 39.616C449.772 39.616 450.46 39.32 451.02 38.728C451.596 38.136 451.884 37.328 451.884 36.304ZM463.061 31.84C463.541 31.104 464.141 30.528 464.861 30.112C465.581 29.68 466.381 29.464 467.261 29.464V33.808H466.133C465.109 33.808 464.341 34.032 463.829 34.48C463.317 34.912 463.061 35.68 463.061 36.784V43H458.957V29.608H463.061V31.84ZM468.406 36.28C468.406 34.904 468.662 33.696 469.174 32.656C469.702 31.616 470.414 30.816 471.31 30.256C472.206 29.696 473.206 29.416 474.31 29.416C475.254 29.416 476.078 29.608 476.782 29.992C477.502 30.376 478.054 30.88 478.438 31.504V29.608H482.542V43H478.438V41.104C478.038 41.728 477.478 42.232 476.758 42.616C476.054 43 475.23 43.192 474.286 43.192C473.198 43.192 472.206 42.912 471.31 42.352C470.414 41.776 469.702 40.968 469.174 39.928C468.662 38.872 468.406 37.656 468.406 36.28ZM478.438 36.304C478.438 35.28 478.15 34.472 477.574 33.88C477.014 33.288 476.326 32.992 475.51 32.992C474.694 32.992 473.998 33.288 473.422 33.88C472.862 34.456 472.582 35.256 472.582 36.28C472.582 37.304 472.862 38.12 473.422 38.728C473.998 39.32 474.694 39.616 475.51 39.616C476.326 39.616 477.014 39.32 477.574 38.728C478.15 38.136 478.438 37.328 478.438 36.304Z" fill="#080C2E"/>
<path d="M125.982 64.595C125.64 63.9363 125.165 63.4423 124.557 63.113C123.949 62.771 123.246 62.6 122.448 62.6C121.574 62.6 120.795 62.7963 120.111 63.189C119.427 63.5817 118.889 64.139 118.496 64.861C118.116 65.583 117.926 66.419 117.926 67.369C117.926 68.319 118.116 69.1613 118.496 69.896C118.889 70.618 119.427 71.1753 120.111 71.568C120.795 71.9607 121.574 72.157 122.448 72.157C123.626 72.157 124.582 71.8277 125.317 71.169C126.052 70.5103 126.501 69.6173 126.666 68.49H121.707V66.761H128.984V68.452C128.845 69.478 128.477 70.4217 127.882 71.283C127.299 72.1443 126.533 72.8347 125.583 73.354C124.646 73.8607 123.601 74.114 122.448 74.114C121.207 74.114 120.073 73.829 119.047 73.259C118.021 72.6763 117.204 71.872 116.596 70.846C116.001 69.82 115.703 68.661 115.703 67.369C115.703 66.077 116.001 64.918 116.596 63.892C117.204 62.866 118.021 62.068 119.047 61.498C120.086 60.9153 121.219 60.624 122.448 60.624C123.854 60.624 125.102 60.9723 126.191 61.669C127.293 62.353 128.091 63.3283 128.585 64.595H125.982ZM130.398 68.718C130.398 67.6667 130.614 66.7357 131.044 65.925C131.488 65.1143 132.083 64.4873 132.83 64.044C133.59 63.588 134.426 63.36 135.338 63.36C136.162 63.36 136.877 63.5247 137.485 63.854C138.106 64.1707 138.6 64.5697 138.967 65.051V63.531H141.152V74H138.967V72.442C138.6 72.936 138.1 73.3477 137.466 73.677C136.833 74.0063 136.111 74.171 135.3 74.171C134.401 74.171 133.578 73.943 132.83 73.487C132.083 73.0183 131.488 72.3723 131.044 71.549C130.614 70.713 130.398 69.7693 130.398 68.718ZM138.967 68.756C138.967 68.034 138.815 67.407 138.511 66.875C138.22 66.343 137.834 65.9377 137.352 65.659C136.871 65.3803 136.352 65.241 135.794 65.241C135.237 65.241 134.718 65.3803 134.236 65.659C133.755 65.925 133.362 66.324 133.058 66.856C132.767 67.3753 132.621 67.996 132.621 68.718C132.621 69.44 132.767 70.0733 133.058 70.618C133.362 71.1627 133.755 71.5807 134.236 71.872C134.73 72.1507 135.25 72.29 135.794 72.29C136.352 72.29 136.871 72.1507 137.352 71.872C137.834 71.5933 138.22 71.188 138.511 70.656C138.815 70.1113 138.967 69.478 138.967 68.756ZM146.163 65.051C146.48 64.519 146.898 64.1073 147.417 63.816C147.949 63.512 148.576 63.36 149.298 63.36V65.602H148.747C147.899 65.602 147.253 65.8173 146.809 66.248C146.379 66.6787 146.163 67.426 146.163 68.49V74H143.997V63.531H146.163V65.051ZM150.567 68.718C150.567 67.6667 150.783 66.7357 151.213 65.925C151.657 65.1143 152.252 64.4873 152.999 64.044C153.759 63.588 154.595 63.36 155.507 63.36C156.331 63.36 157.046 63.5247 157.654 63.854C158.275 64.1707 158.769 64.5697 159.136 65.051V63.531H161.321V74H159.136V72.442C158.769 72.936 158.269 73.3477 157.635 73.677C157.002 74.0063 156.28 74.171 155.469 74.171C154.57 74.171 153.747 73.943 152.999 73.487C152.252 73.0183 151.657 72.3723 151.213 71.549C150.783 70.713 150.567 69.7693 150.567 68.718ZM159.136 68.756C159.136 68.034 158.984 67.407 158.68 66.875C158.389 66.343 158.003 65.9377 157.521 65.659C157.04 65.3803 156.521 65.241 155.963 65.241C155.406 65.241 154.887 65.3803 154.405 65.659C153.924 65.925 153.531 66.324 153.227 66.856C152.936 67.3753 152.79 67.996 152.79 68.718C152.79 69.44 152.936 70.0733 153.227 70.618C153.531 71.1627 153.924 71.5807 154.405 71.872C154.899 72.1507 155.419 72.29 155.963 72.29C156.521 72.29 157.04 72.1507 157.521 71.872C158.003 71.5933 158.389 71.188 158.68 70.656C158.984 70.1113 159.136 69.478 159.136 68.756ZM167.966 74.171C167.143 74.171 166.402 74.0253 165.743 73.734C165.097 73.43 164.584 73.0247 164.204 72.518C163.824 71.9987 163.622 71.4223 163.596 70.789H165.838C165.876 71.2323 166.085 71.606 166.465 71.91C166.858 72.2013 167.346 72.347 167.928 72.347C168.536 72.347 169.005 72.233 169.334 72.005C169.676 71.7643 169.847 71.4603 169.847 71.093C169.847 70.7003 169.657 70.409 169.277 70.219C168.91 70.029 168.321 69.82 167.51 69.592C166.725 69.3767 166.085 69.1677 165.591 68.965C165.097 68.7623 164.667 68.452 164.299 68.034C163.945 67.616 163.767 67.065 163.767 66.381C163.767 65.8237 163.932 65.317 164.261 64.861C164.591 64.3923 165.059 64.025 165.667 63.759C166.288 63.493 166.997 63.36 167.795 63.36C168.986 63.36 169.942 63.664 170.664 64.272C171.399 64.8673 171.792 65.6843 171.842 66.723H169.676C169.638 66.2543 169.448 65.8807 169.106 65.602C168.764 65.3233 168.302 65.184 167.719 65.184C167.149 65.184 166.712 65.2917 166.408 65.507C166.104 65.7223 165.952 66.0073 165.952 66.362C165.952 66.6407 166.054 66.875 166.256 67.065C166.459 67.255 166.706 67.407 166.997 67.521C167.289 67.6223 167.719 67.7553 168.289 67.92C169.049 68.1227 169.67 68.3317 170.151 68.547C170.645 68.7497 171.07 69.0537 171.424 69.459C171.779 69.8643 171.963 70.4027 171.975 71.074C171.975 71.6693 171.811 72.2013 171.481 72.67C171.152 73.1387 170.683 73.506 170.075 73.772C169.48 74.038 168.777 74.171 167.966 74.171ZM175.418 62.144C175.025 62.144 174.696 62.011 174.43 61.745C174.164 61.479 174.031 61.1497 174.031 60.757C174.031 60.3643 174.164 60.035 174.43 59.769C174.696 59.503 175.025 59.37 175.418 59.37C175.798 59.37 176.121 59.503 176.387 59.769C176.653 60.035 176.786 60.3643 176.786 60.757C176.786 61.1497 176.653 61.479 176.387 61.745C176.121 62.011 175.798 62.144 175.418 62.144ZM176.482 63.531V74H174.316V63.531H176.482ZM193.495 64.728C193.495 65.3993 193.337 66.0327 193.02 66.628C192.703 67.2233 192.197 67.711 191.5 68.091C190.803 68.4583 189.91 68.642 188.821 68.642H186.427V74H184.261V60.795H188.821C189.834 60.795 190.689 60.9723 191.386 61.327C192.095 61.669 192.621 62.1377 192.963 62.733C193.318 63.3283 193.495 63.9933 193.495 64.728ZM188.821 66.875C189.644 66.875 190.259 66.6913 190.664 66.324C191.069 65.944 191.272 65.412 191.272 64.728C191.272 63.284 190.455 62.562 188.821 62.562H186.427V66.875H188.821ZM194.839 68.718C194.839 67.6667 195.054 66.7357 195.485 65.925C195.928 65.1143 196.523 64.4873 197.271 64.044C198.031 63.588 198.867 63.36 199.779 63.36C200.602 63.36 201.318 63.5247 201.926 63.854C202.546 64.1707 203.04 64.5697 203.408 65.051V63.531H205.593V74H203.408V72.442C203.04 72.936 202.54 73.3477 201.907 73.677C201.273 74.0063 200.551 74.171 199.741 74.171C198.841 74.171 198.018 73.943 197.271 73.487C196.523 73.0183 195.928 72.3723 195.485 71.549C195.054 70.713 194.839 69.7693 194.839 68.718ZM203.408 68.756C203.408 68.034 203.256 67.407 202.952 66.875C202.66 66.343 202.274 65.9377 201.793 65.659C201.311 65.3803 200.792 65.241 200.235 65.241C199.677 65.241 199.158 65.3803 198.677 65.659C198.195 65.925 197.803 66.324 197.499 66.856C197.207 67.3753 197.062 67.996 197.062 68.718C197.062 69.44 197.207 70.0733 197.499 70.618C197.803 71.1627 198.195 71.5807 198.677 71.872C199.171 72.1507 199.69 72.29 200.235 72.29C200.792 72.29 201.311 72.1507 201.793 71.872C202.274 71.5933 202.66 71.188 202.952 70.656C203.256 70.1113 203.408 69.478 203.408 68.756ZM210.965 65.298V71.093C210.965 71.4857 211.053 71.7707 211.231 71.948C211.421 72.1127 211.737 72.195 212.181 72.195H213.511V74H211.801C210.825 74 210.078 73.772 209.559 73.316C209.039 72.86 208.78 72.119 208.78 71.093V65.298H207.545V63.531H208.78V60.928H210.965V63.531H213.511V65.298H210.965ZM217.673 65.051C217.99 64.519 218.408 64.1073 218.927 63.816C219.459 63.512 220.086 63.36 220.808 63.36V65.602H220.257C219.408 65.602 218.762 65.8173 218.319 66.248C217.888 66.6787 217.673 67.426 217.673 68.49V74H215.507V63.531H217.673V65.051ZM222.077 68.718C222.077 67.6667 222.292 66.7357 222.723 65.925C223.166 65.1143 223.762 64.4873 224.509 64.044C225.269 63.588 226.105 63.36 227.017 63.36C227.84 63.36 228.556 63.5247 229.164 63.854C229.785 64.1707 230.279 64.5697 230.646 65.051V63.531H232.831V74H230.646V72.442C230.279 72.936 229.778 73.3477 229.145 73.677C228.512 74.0063 227.79 74.171 226.979 74.171C226.08 74.171 225.256 73.943 224.509 73.487C223.762 73.0183 223.166 72.3723 222.723 71.549C222.292 70.713 222.077 69.7693 222.077 68.718ZM230.646 68.756C230.646 68.034 230.494 67.407 230.19 66.875C229.899 66.343 229.512 65.9377 229.031 65.659C228.55 65.3803 228.03 65.241 227.473 65.241C226.916 65.241 226.396 65.3803 225.915 65.659C225.434 65.925 225.041 66.324 224.737 66.856C224.446 67.3753 224.3 67.996 224.3 68.718C224.3 69.44 224.446 70.0733 224.737 70.618C225.041 71.1627 225.434 71.5807 225.915 71.872C226.409 72.1507 226.928 72.29 227.473 72.29C228.03 72.29 228.55 72.1507 229.031 71.872C229.512 71.5933 229.899 71.188 230.19 70.656C230.494 70.1113 230.646 69.478 230.646 68.756ZM240.958 63.36C241.781 63.36 242.516 63.531 243.162 63.873C243.821 64.215 244.334 64.7217 244.701 65.393C245.068 66.0643 245.252 66.875 245.252 67.825V74H243.105V68.148C243.105 67.2107 242.871 66.495 242.402 66.001C241.933 65.4943 241.294 65.241 240.483 65.241C239.672 65.241 239.026 65.4943 238.545 66.001C238.076 66.495 237.842 67.2107 237.842 68.148V74H235.676V63.531H237.842V64.728C238.197 64.2973 238.646 63.9617 239.191 63.721C239.748 63.4803 240.337 63.36 240.958 63.36ZM251.815 74.171C250.992 74.171 250.251 74.0253 249.592 73.734C248.946 73.43 248.433 73.0247 248.053 72.518C247.673 71.9987 247.47 71.4223 247.445 70.789H249.687C249.725 71.2323 249.934 71.606 250.314 71.91C250.707 72.2013 251.194 72.347 251.777 72.347C252.385 72.347 252.854 72.233 253.183 72.005C253.525 71.7643 253.696 71.4603 253.696 71.093C253.696 70.7003 253.506 70.409 253.126 70.219C252.759 70.029 252.17 69.82 251.359 69.592C250.574 69.3767 249.934 69.1677 249.44 68.965C248.946 68.7623 248.515 68.452 248.148 68.034C247.793 67.616 247.616 67.065 247.616 66.381C247.616 65.8237 247.781 65.317 248.11 64.861C248.439 64.3923 248.908 64.025 249.516 63.759C250.137 63.493 250.846 63.36 251.644 63.36C252.835 63.36 253.791 63.664 254.513 64.272C255.248 64.8673 255.64 65.6843 255.691 66.723H253.525C253.487 66.2543 253.297 65.8807 252.955 65.602C252.613 65.3233 252.151 65.184 251.568 65.184C250.998 65.184 250.561 65.2917 250.257 65.507C249.953 65.7223 249.801 66.0073 249.801 66.362C249.801 66.6407 249.902 66.875 250.105 67.065C250.308 67.255 250.555 67.407 250.846 67.521C251.137 67.6223 251.568 67.7553 252.138 67.92C252.898 68.1227 253.519 68.3317 254 68.547C254.494 68.7497 254.918 69.0537 255.273 69.459C255.628 69.8643 255.811 70.4027 255.824 71.074C255.824 71.6693 255.659 72.2013 255.33 72.67C255.001 73.1387 254.532 73.506 253.924 73.772C253.329 74.038 252.626 74.171 251.815 74.171ZM269.959 74L266.919 68.718H265.266V74H263.1V60.795H267.66C268.673 60.795 269.528 60.9723 270.225 61.327C270.934 61.6817 271.46 62.1567 271.802 62.752C272.156 63.3473 272.334 64.0123 272.334 64.747C272.334 65.6083 272.08 66.3937 271.574 67.103C271.08 67.7997 270.313 68.2747 269.275 68.528L272.543 74H269.959ZM265.266 66.989H267.66C268.47 66.989 269.078 66.7863 269.484 66.381C269.902 65.9757 270.111 65.431 270.111 64.747C270.111 64.063 269.908 63.531 269.503 63.151C269.097 62.7583 268.483 62.562 267.66 62.562H265.266V66.989ZM284.7 68.509C284.7 68.9017 284.674 69.2563 284.624 69.573H276.625C276.688 70.409 276.998 71.0803 277.556 71.587C278.113 72.0937 278.797 72.347 279.608 72.347C280.773 72.347 281.596 71.8593 282.078 70.884H284.415C284.098 71.8467 283.522 72.6383 282.686 73.259C281.862 73.867 280.836 74.171 279.608 74.171C278.607 74.171 277.708 73.9493 276.91 73.506C276.124 73.05 275.504 72.4167 275.048 71.606C274.604 70.7827 274.383 69.8327 274.383 68.756C274.383 67.6793 274.598 66.7357 275.029 65.925C275.472 65.1017 276.086 64.4683 276.872 64.025C277.67 63.5817 278.582 63.36 279.608 63.36C280.596 63.36 281.476 63.5753 282.249 64.006C283.021 64.4367 283.623 65.0447 284.054 65.83C284.484 66.6027 284.7 67.4957 284.7 68.509ZM282.439 67.825C282.426 67.027 282.141 66.3873 281.584 65.906C281.026 65.4247 280.336 65.184 279.513 65.184C278.765 65.184 278.126 65.4247 277.594 65.906C277.062 66.3747 276.745 67.0143 276.644 67.825H282.439ZM292.113 63.36C292.937 63.36 293.671 63.531 294.317 63.873C294.976 64.215 295.489 64.7217 295.856 65.393C296.224 66.0643 296.407 66.875 296.407 67.825V74H294.26V68.148C294.26 67.2107 294.026 66.495 293.557 66.001C293.089 65.4943 292.449 65.241 291.638 65.241C290.828 65.241 290.182 65.4943 289.7 66.001C289.232 66.495 288.997 67.2107 288.997 68.148V74H286.831V63.531H288.997V64.728C289.352 64.2973 289.802 63.9617 290.346 63.721C290.904 63.4803 291.493 63.36 292.113 63.36ZM301.697 65.298V71.093C301.697 71.4857 301.786 71.7707 301.963 71.948C302.153 72.1127 302.47 72.195 302.913 72.195H304.243V74H302.533C301.558 74 300.81 73.772 300.291 73.316C299.772 72.86 299.512 72.119 299.512 71.093V65.298H298.277V63.531H299.512V60.928H301.697V63.531H304.243V65.298H301.697ZM305.517 68.718C305.517 67.6667 305.733 66.7357 306.163 65.925C306.607 65.1143 307.202 64.4873 307.949 64.044C308.709 63.588 309.545 63.36 310.457 63.36C311.281 63.36 311.996 63.5247 312.604 63.854C313.225 64.1707 313.719 64.5697 314.086 65.051V63.531H316.271V74H314.086V72.442C313.719 72.936 313.219 73.3477 312.585 73.677C311.952 74.0063 311.23 74.171 310.419 74.171C309.52 74.171 308.697 73.943 307.949 73.487C307.202 73.0183 306.607 72.3723 306.163 71.549C305.733 70.713 305.517 69.7693 305.517 68.718ZM314.086 68.756C314.086 68.034 313.934 67.407 313.63 66.875C313.339 66.343 312.953 65.9377 312.471 65.659C311.99 65.3803 311.471 65.241 310.913 65.241C310.356 65.241 309.837 65.3803 309.355 65.659C308.874 65.925 308.481 66.324 308.177 66.856C307.886 67.3753 307.74 67.996 307.74 68.718C307.74 69.44 307.886 70.0733 308.177 70.618C308.481 71.1627 308.874 71.5807 309.355 71.872C309.849 72.1507 310.369 72.29 310.913 72.29C311.471 72.29 311.99 72.1507 312.471 71.872C312.953 71.5933 313.339 71.188 313.63 70.656C313.934 70.1113 314.086 69.478 314.086 68.756ZM321.282 59.94V74H319.116V59.94H321.282ZM342.97 60.795V74H340.804V64.956L336.776 74H335.275L331.228 64.956V74H329.062V60.795H331.399L336.035 71.15L340.652 60.795H342.97ZM350.358 74.171C349.37 74.171 348.477 73.9493 347.679 73.506C346.881 73.05 346.254 72.4167 345.798 71.606C345.342 70.7827 345.114 69.8327 345.114 68.756C345.114 67.692 345.348 66.7483 345.817 65.925C346.285 65.1017 346.925 64.4683 347.736 64.025C348.546 63.5817 349.452 63.36 350.453 63.36C351.453 63.36 352.359 63.5817 353.17 64.025C353.98 64.4683 354.62 65.1017 355.089 65.925C355.557 66.7483 355.792 67.692 355.792 68.756C355.792 69.82 355.551 70.7637 355.07 71.587C354.588 72.4103 353.93 73.05 353.094 73.506C352.27 73.9493 351.358 74.171 350.358 74.171ZM350.358 72.29C350.915 72.29 351.434 72.157 351.916 71.891C352.41 71.625 352.809 71.226 353.113 70.694C353.417 70.162 353.569 69.516 353.569 68.756C353.569 67.996 353.423 67.3563 353.132 66.837C352.84 66.305 352.454 65.906 351.973 65.64C351.491 65.374 350.972 65.241 350.415 65.241C349.857 65.241 349.338 65.374 348.857 65.64C348.388 65.906 348.014 66.305 347.736 66.837C347.457 67.3563 347.318 67.996 347.318 68.756C347.318 69.8833 347.603 70.7573 348.173 71.378C348.755 71.986 349.484 72.29 350.358 72.29ZM360.099 65.089C360.466 64.5823 360.966 64.1707 361.6 63.854C362.246 63.5247 362.961 63.36 363.747 63.36C364.671 63.36 365.507 63.5817 366.255 64.025C367.002 64.4683 367.591 65.1017 368.022 65.925C368.452 66.7357 368.668 67.6667 368.668 68.718C368.668 69.7693 368.452 70.713 368.022 71.549C367.591 72.3723 366.996 73.0183 366.236 73.487C365.488 73.943 364.659 74.171 363.747 74.171C362.936 74.171 362.214 74.0127 361.581 73.696C360.96 73.3793 360.466 72.974 360.099 72.48V74H357.933V59.94H360.099V65.089ZM366.464 68.718C366.464 67.996 366.312 67.3753 366.008 66.856C365.716 66.324 365.324 65.925 364.83 65.659C364.348 65.3803 363.829 65.241 363.272 65.241C362.727 65.241 362.208 65.3803 361.714 65.659C361.232 65.9377 360.84 66.343 360.536 66.875C360.244 67.407 360.099 68.034 360.099 68.756C360.099 69.478 360.244 70.1113 360.536 70.656C360.84 71.188 361.232 71.5933 361.714 71.872C362.208 72.1507 362.727 72.29 363.272 72.29C363.829 72.29 364.348 72.1507 364.83 71.872C365.324 71.5807 365.716 71.1627 366.008 70.618C366.312 70.0733 366.464 69.44 366.464 68.718ZM371.912 62.144C371.519 62.144 371.19 62.011 370.924 61.745C370.658 61.479 370.525 61.1497 370.525 60.757C370.525 60.3643 370.658 60.035 370.924 59.769C371.19 59.503 371.519 59.37 371.912 59.37C372.292 59.37 372.615 59.503 372.881 59.769C373.147 60.035 373.28 60.3643 373.28 60.757C373.28 61.1497 373.147 61.479 372.881 61.745C372.615 62.011 372.292 62.144 371.912 62.144ZM372.976 63.531V74H370.81V63.531H372.976ZM377.986 59.94V74H375.82V59.94H377.986ZM394.999 64.728C394.999 65.3993 394.841 66.0327 394.524 66.628C394.207 67.2233 393.701 67.711 393.004 68.091C392.307 68.4583 391.414 68.642 390.325 68.642H387.931V74H385.765V60.795H390.325C391.338 60.795 392.193 60.9723 392.89 61.327C393.599 61.669 394.125 62.1377 394.467 62.733C394.822 63.3283 394.999 63.9933 394.999 64.728ZM390.325 66.875C391.148 66.875 391.763 66.6913 392.168 66.324C392.573 65.944 392.776 65.412 392.776 64.728C392.776 63.284 391.959 62.562 390.325 62.562H387.931V66.875H390.325ZM406.546 63.531V74H404.38V72.765C404.038 73.1957 403.588 73.5377 403.031 73.791C402.486 74.0317 401.903 74.152 401.283 74.152C400.459 74.152 399.718 73.981 399.06 73.639C398.414 73.297 397.901 72.7903 397.521 72.119C397.153 71.4477 396.97 70.637 396.97 69.687V63.531H399.117V69.364C399.117 70.3013 399.351 71.0233 399.82 71.53C400.288 72.024 400.928 72.271 401.739 72.271C402.549 72.271 403.189 72.024 403.658 71.53C404.139 71.0233 404.38 70.3013 404.38 69.364V63.531H406.546ZM411.57 65.051C411.886 64.519 412.304 64.1073 412.824 63.816C413.356 63.512 413.983 63.36 414.705 63.36V65.602H414.154C413.305 65.602 412.659 65.8173 412.216 66.248C411.785 66.6787 411.57 67.426 411.57 68.49V74H409.404V63.531H411.57V65.051ZM430.756 63.531L427.507 74H425.227L423.118 66.267L421.009 74H418.729L415.461 63.531H417.665L419.85 71.948L422.073 63.531H424.334L426.462 71.91L428.628 63.531H430.756ZM436.915 74.171C435.927 74.171 435.034 73.9493 434.236 73.506C433.438 73.05 432.811 72.4167 432.355 71.606C431.899 70.7827 431.671 69.8327 431.671 68.756C431.671 67.692 431.906 66.7483 432.374 65.925C432.843 65.1017 433.483 64.4683 434.293 64.025C435.104 63.5817 436.01 63.36 437.01 63.36C438.011 63.36 438.917 63.5817 439.727 64.025C440.538 64.4683 441.178 65.1017 441.646 65.925C442.115 66.7483 442.349 67.692 442.349 68.756C442.349 69.82 442.109 70.7637 441.627 71.587C441.146 72.4103 440.487 73.05 439.651 73.506C438.828 73.9493 437.916 74.171 436.915 74.171ZM436.915 72.29C437.473 72.29 437.992 72.157 438.473 71.891C438.967 71.625 439.366 71.226 439.67 70.694C439.974 70.162 440.126 69.516 440.126 68.756C440.126 67.996 439.981 67.3563 439.689 66.837C439.398 66.305 439.012 65.906 438.53 65.64C438.049 65.374 437.53 65.241 436.972 65.241C436.415 65.241 435.896 65.374 435.414 65.64C434.946 65.906 434.572 66.305 434.293 66.837C434.015 67.3563 433.875 67.996 433.875 68.756C433.875 69.8833 434.16 70.7573 434.73 71.378C435.313 71.986 436.041 72.29 436.915 72.29ZM448.632 68.775L453.458 74H450.532L446.656 69.497V74H444.49V59.94H446.656V68.11L450.456 63.531H453.458L448.632 68.775ZM464.606 68.509C464.606 68.9017 464.581 69.2563 464.53 69.573H456.531C456.594 70.409 456.905 71.0803 457.462 71.587C458.019 72.0937 458.703 72.347 459.514 72.347C460.679 72.347 461.503 71.8593 461.984 70.884H464.321C464.004 71.8467 463.428 72.6383 462.592 73.259C461.769 73.867 460.743 74.171 459.514 74.171C458.513 74.171 457.614 73.9493 456.816 73.506C456.031 73.05 455.41 72.4167 454.954 71.606C454.511 70.7827 454.289 69.8327 454.289 68.756C454.289 67.6793 454.504 66.7357 454.935 65.925C455.378 65.1017 455.993 64.4683 456.778 64.025C457.576 63.5817 458.488 63.36 459.514 63.36C460.502 63.36 461.382 63.5753 462.155 64.006C462.928 64.4367 463.529 65.0447 463.96 65.83C464.391 66.6027 464.606 67.4957 464.606 68.509ZM462.345 67.825C462.332 67.027 462.047 66.3873 461.49 65.906C460.933 65.4247 460.242 65.184 459.419 65.184C458.672 65.184 458.032 65.4247 457.5 65.906C456.968 66.3747 456.651 67.0143 456.55 67.825H462.345ZM468.904 65.051C469.22 64.519 469.638 64.1073 470.158 63.816C470.69 63.512 471.317 63.36 472.039 63.36V65.602H471.488C470.639 65.602 469.993 65.8173 469.55 66.248C469.119 66.6787 468.904 67.426 468.904 68.49V74H466.738V63.531H468.904V65.051ZM476.556 65.298V71.093C476.556 71.4857 476.645 71.7707 476.822 71.948C477.012 72.1127 477.329 72.195 477.772 72.195H479.102V74H477.392C476.417 74 475.67 73.772 475.15 73.316C474.631 72.86 474.371 72.119 474.371 71.093V65.298H473.136V63.531H474.371V60.928H476.556V63.531H479.102V65.298H476.556ZM485.64 74.171C484.652 74.171 483.759 73.9493 482.961 73.506C482.163 73.05 481.536 72.4167 481.08 71.606C480.624 70.7827 480.396 69.8327 480.396 68.756C480.396 67.692 480.63 66.7483 481.099 65.925C481.567 65.1017 482.207 64.4683 483.018 64.025C483.828 63.5817 484.734 63.36 485.735 63.36C486.735 63.36 487.641 63.5817 488.452 64.025C489.262 64.4683 489.902 65.1017 490.371 65.925C490.839 66.7483 491.074 67.692 491.074 68.756C491.074 69.82 490.833 70.7637 490.352 71.587C489.87 72.4103 489.212 73.05 488.376 73.506C487.552 73.9493 486.64 74.171 485.64 74.171ZM485.64 72.29C486.197 72.29 486.716 72.157 487.198 71.891C487.692 71.625 488.091 71.226 488.395 70.694C488.699 70.162 488.851 69.516 488.851 68.756C488.851 67.996 488.705 67.3563 488.414 66.837C488.122 66.305 487.736 65.906 487.255 65.64C486.773 65.374 486.254 65.241 485.697 65.241C485.139 65.241 484.62 65.374 484.139 65.64C483.67 65.906 483.296 66.305 483.018 66.837C482.739 67.3563 482.6 67.996 482.6 68.756C482.6 69.8833 482.885 70.7573 483.455 71.378C484.037 71.986 484.766 72.29 485.64 72.29Z" fill="#464646"/>
</svg>
