<svg width="118" height="51" viewBox="0 0 118 51" fill="none" xmlns="http://www.w3.org/2000/svg">
<path d="M11.1606 14.272H5.39662L4.47262 17H0.534617L6.12262 1.556H10.4786L16.0666 17H12.0846L11.1606 14.272ZM10.1926 11.368L8.27862 5.714L6.38662 11.368H10.1926ZM25.2473 4.592C26.6847 4.592 27.8287 5.06133 28.6793 6C29.5447 6.924 29.9773 8.2 29.9773 9.828V17H26.2373V10.334C26.2373 9.51267 26.0247 8.87467 25.5993 8.42C25.174 7.96533 24.602 7.738 23.8833 7.738C23.1647 7.738 22.5927 7.96533 22.1673 8.42C21.742 8.87467 21.5293 9.51267 21.5293 10.334V17H17.7673V4.724H21.5293V6.352C21.9107 5.80933 22.424 5.384 23.0693 5.076C23.7147 4.75333 24.4407 4.592 25.2473 4.592ZM31.8435 10.84C31.8435 9.57867 32.0782 8.47133 32.5475 7.518C33.0315 6.56467 33.6842 5.83133 34.5055 5.318C35.3269 4.80467 36.2435 4.548 37.2555 4.548C38.0622 4.548 38.7955 4.71667 39.4555 5.054C40.1302 5.39133 40.6582 5.846 41.0395 6.418V0.72H44.8015V17H41.0395V15.24C40.6875 15.8267 40.1815 16.296 39.5215 16.648C38.8762 17 38.1209 17.176 37.2555 17.176C36.2435 17.176 35.3269 16.9193 34.5055 16.406C33.6842 15.878 33.0315 15.1373 32.5475 14.184C32.0782 13.216 31.8435 12.1013 31.8435 10.84ZM41.0395 10.862C41.0395 9.92333 40.7755 9.18267 40.2475 8.64C39.7342 8.09733 39.1035 7.826 38.3555 7.826C37.6075 7.826 36.9695 8.09733 36.4415 8.64C35.9282 9.168 35.6715 9.90133 35.6715 10.84C35.6715 11.7787 35.9282 12.5267 36.4415 13.084C36.9695 13.6267 37.6075 13.898 38.3555 13.898C39.1035 13.898 39.7342 13.6267 40.2475 13.084C40.7755 12.5413 41.0395 11.8007 41.0395 10.862ZM67.8493 4.592C69.3746 4.592 70.5846 5.054 71.4793 5.978C72.3886 6.902 72.8433 8.18533 72.8433 9.828V17H69.1033V10.334C69.1033 9.542 68.8906 8.93333 68.4653 8.508C68.0546 8.068 67.4826 7.848 66.7493 7.848C66.016 7.848 65.4366 8.068 65.0113 8.508C64.6006 8.93333 64.3953 9.542 64.3953 10.334V17H60.6553V10.334C60.6553 9.542 60.4426 8.93333 60.0173 8.508C59.6066 8.068 59.0346 7.848 58.3013 7.848C57.568 7.848 56.9886 8.068 56.5633 8.508C56.1526 8.93333 55.9473 9.542 55.9473 10.334V17H52.1853V4.724H55.9473V6.264C56.3286 5.75067 56.8273 5.34733 57.4433 5.054C58.0593 4.746 58.756 4.592 59.5333 4.592C60.4573 4.592 61.2786 4.79 61.9973 5.186C62.7306 5.582 63.3026 6.14667 63.7133 6.88C64.1386 6.20533 64.718 5.65533 65.4513 5.23C66.1846 4.80467 66.984 4.592 67.8493 4.592ZM74.7264 10.84C74.7264 9.57867 74.961 8.47133 75.4304 7.518C75.9144 6.56467 76.567 5.83133 77.3884 5.318C78.2097 4.80467 79.1264 4.548 80.1384 4.548C81.0037 4.548 81.759 4.724 82.4044 5.076C83.0644 5.428 83.5704 5.89 83.9224 6.462V4.724H87.6844V17H83.9224V15.262C83.5557 15.834 83.0424 16.296 82.3824 16.648C81.737 17 80.9817 17.176 80.1164 17.176C79.119 17.176 78.2097 16.9193 77.3884 16.406C76.567 15.878 75.9144 15.1373 75.4304 14.184C74.961 13.216 74.7264 12.1013 74.7264 10.84ZM83.9224 10.862C83.9224 9.92333 83.6584 9.18267 83.1304 8.64C82.617 8.09733 81.9864 7.826 81.2384 7.826C80.4904 7.826 79.8524 8.09733 79.3244 8.64C78.811 9.168 78.5544 9.90133 78.5544 10.84C78.5544 11.7787 78.811 12.5267 79.3244 13.084C79.8524 13.6267 80.4904 13.898 81.2384 13.898C81.9864 13.898 82.617 13.6267 83.1304 13.084C83.6584 12.5413 83.9224 11.8007 83.9224 10.862ZM97.886 4.592C99.3233 4.592 100.467 5.06133 101.318 6C102.183 6.924 102.616 8.2 102.616 9.828V17H98.876V10.334C98.876 9.51267 98.6633 8.87467 98.238 8.42C97.8127 7.96533 97.2407 7.738 96.522 7.738C95.8033 7.738 95.2313 7.96533 94.806 8.42C94.3807 8.87467 94.168 9.51267 94.168 10.334V17H90.406V4.724H94.168V6.352C94.5493 5.80933 95.0627 5.384 95.708 5.076C96.3533 4.75333 97.0793 4.592 97.886 4.592ZM117.77 4.724L110.07 22.83H106.022L108.838 16.582L103.844 4.724H108.046L110.884 12.402L113.7 4.724H117.77ZM17.2106 37.592C18.736 37.592 19.946 38.054 20.8406 38.978C21.75 39.902 22.2046 41.1853 22.2046 42.828V50H18.4646V43.334C18.4646 42.542 18.252 41.9333 17.8266 41.508C17.416 41.068 16.844 40.848 16.1106 40.848C15.3773 40.848 14.798 41.068 14.3726 41.508C13.962 41.9333 13.7566 42.542 13.7566 43.334V50H10.0166V43.334C10.0166 42.542 9.80395 41.9333 9.37862 41.508C8.96795 41.068 8.39595 40.848 7.66262 40.848C6.92928 40.848 6.34995 41.068 5.92462 41.508C5.51395 41.9333 5.30862 42.542 5.30862 43.334V50H1.54662V37.724H5.30862V39.264C5.68995 38.7507 6.18862 38.3473 6.80462 38.054C7.42062 37.746 8.11728 37.592 8.89462 37.592C9.81862 37.592 10.64 37.79 11.3586 38.186C12.092 38.582 12.664 39.1467 13.0746 39.88C13.5 39.2053 14.0793 38.6553 14.8126 38.23C15.546 37.8047 16.3453 37.592 17.2106 37.592ZM30.4237 50.176C29.221 50.176 28.1357 49.9193 27.1677 49.406C26.2143 48.8927 25.459 48.1593 24.9017 47.206C24.359 46.2527 24.0877 45.138 24.0877 43.862C24.0877 42.6007 24.3663 41.4933 24.9237 40.54C25.481 39.572 26.2437 38.8313 27.2117 38.318C28.1797 37.8047 29.265 37.548 30.4677 37.548C31.6703 37.548 32.7557 37.8047 33.7237 38.318C34.6917 38.8313 35.4543 39.572 36.0117 40.54C36.569 41.4933 36.8477 42.6007 36.8477 43.862C36.8477 45.1233 36.5617 46.238 35.9897 47.206C35.4323 48.1593 34.6623 48.8927 33.6797 49.406C32.7117 49.9193 31.6263 50.176 30.4237 50.176ZM30.4237 46.92C31.1423 46.92 31.751 46.656 32.2497 46.128C32.763 45.6 33.0197 44.8447 33.0197 43.862C33.0197 42.8793 32.7703 42.124 32.2717 41.596C31.7877 41.068 31.1863 40.804 30.4677 40.804C29.7343 40.804 29.1257 41.068 28.6417 41.596C28.1577 42.1093 27.9157 42.8647 27.9157 43.862C27.9157 44.8447 28.1503 45.6 28.6197 46.128C29.1037 46.656 29.705 46.92 30.4237 46.92ZM42.6055 39.77C43.0455 39.0953 43.5955 38.5673 44.2555 38.186C44.9155 37.79 45.6488 37.592 46.4555 37.592V41.574H45.4215C44.4828 41.574 43.7788 41.7793 43.3095 42.19C42.8402 42.586 42.6055 43.29 42.6055 44.302V50H38.8435V37.724H42.6055V39.77ZM59.8256 43.664C59.8256 44.016 59.8036 44.3827 59.7596 44.764H51.2456C51.3043 45.5267 51.5463 46.1133 51.9716 46.524C52.4116 46.92 52.947 47.118 53.5776 47.118C54.5163 47.118 55.169 46.722 55.5356 45.93H59.5396C59.3343 46.7367 58.9603 47.4627 58.4176 48.108C57.8896 48.7533 57.2223 49.2593 56.4156 49.626C55.609 49.9927 54.707 50.176 53.7096 50.176C52.507 50.176 51.4363 49.9193 50.4976 49.406C49.559 48.8927 48.8256 48.1593 48.2976 47.206C47.7696 46.2527 47.5056 45.138 47.5056 43.862C47.5056 42.586 47.7623 41.4713 48.2756 40.518C48.8036 39.5647 49.537 38.8313 50.4756 38.318C51.4143 37.8047 52.4923 37.548 53.7096 37.548C54.8976 37.548 55.9536 37.7973 56.8776 38.296C57.8016 38.7947 58.5203 39.506 59.0336 40.43C59.5616 41.354 59.8256 42.432 59.8256 43.664ZM55.9756 42.674C55.9756 42.0287 55.7556 41.5153 55.3156 41.134C54.8756 40.7527 54.3256 40.562 53.6656 40.562C53.035 40.562 52.4996 40.7453 52.0596 41.112C51.6343 41.4787 51.3703 41.9993 51.2676 42.674H55.9756ZM72.9643 43.994H69.1363V47.91H65.5723V43.994H61.7443V40.628H65.5723V36.69H69.1363V40.628H72.9643V43.994ZM86.7787 43.994H82.9507V47.91H79.3867V43.994H75.5587V40.628H79.3867V36.69H82.9507V40.628H86.7787V43.994Z" fill="white"/>
</svg>
