<svg width="44" height="44" viewBox="0 0 44 44" fill="none" xmlns="http://www.w3.org/2000/svg">
<path d="M10.028 16.5C13.5718 16.5 16.4447 13.6271 16.4447 10.0833C16.4447 6.53947 13.5718 3.66663 10.028 3.66663C6.48417 3.66663 3.61133 6.53947 3.61133 10.0833C3.61133 13.6271 6.48417 16.5 10.028 16.5Z" stroke="white" stroke-width="4"/>
<path d="M31.112 27.5H36.612C38.6286 27.5 40.2786 29.15 40.2786 31.1667V36.6667C40.2786 38.6833 38.6286 40.3333 36.612 40.3333H31.112C29.0953 40.3333 27.4453 38.6833 27.4453 36.6667V31.1667C27.4453 29.15 29.0953 27.5 31.112 27.5Z" stroke="white" stroke-width="4"/>
<path d="M22.0001 9.16663H26.9134C30.3051 9.16663 31.8818 13.365 29.3334 15.6016L14.6851 28.4166C12.1368 30.635 13.7134 34.8333 17.0868 34.8333H22.0001" stroke="white" stroke-width="4" stroke-linecap="round" stroke-linejoin="round"/>
<path d="M10.0578 10.0833H10.079" stroke="white" stroke-width="4" stroke-linecap="round" stroke-linejoin="round"/>
<path d="M33.8918 33.9167H33.913" stroke="white" stroke-width="4" stroke-linecap="round" stroke-linejoin="round"/>
</svg>
