<svg width="54" height="54" viewBox="0 0 54 54" fill="none" xmlns="http://www.w3.org/2000/svg">
<path d="M4.5 20.25V14.625C4.5 9.0225 9.0225 4.5 14.625 4.5H20.25" stroke="#2447F9" stroke-width="5" stroke-linecap="round" stroke-linejoin="round"/>
<path d="M33.75 4.5H39.375C44.9775 4.5 49.5 9.0225 49.5 14.625V20.25" stroke="#2447F9" stroke-width="5" stroke-linecap="round" stroke-linejoin="round"/>
<path d="M49.5 36V39.375C49.5 44.9775 44.9775 49.5 39.375 49.5H36" stroke="#2447F9" stroke-width="5" stroke-linecap="round" stroke-linejoin="round"/>
<path d="M20.25 49.5H14.625C9.0225 49.5 4.5 44.9775 4.5 39.375V33.75" stroke="#2447F9" stroke-width="5" stroke-linecap="round" stroke-linejoin="round"/>
<path d="M19.125 24.75C22.2316 24.75 24.75 22.2316 24.75 19.125C24.75 16.0184 22.2316 13.5 19.125 13.5C16.0184 13.5 13.5 16.0184 13.5 19.125C13.5 22.2316 16.0184 24.75 19.125 24.75Z" stroke="#2447F9" stroke-width="5" stroke-linecap="round" stroke-linejoin="round"/>
<path d="M16.875 40.5C18.739 40.5 20.25 38.989 20.25 37.125C20.25 35.261 18.739 33.75 16.875 33.75C15.011 33.75 13.5 35.261 13.5 37.125C13.5 38.989 15.011 40.5 16.875 40.5Z" stroke="#2447F9" stroke-width="5" stroke-linecap="round" stroke-linejoin="round"/>
<path d="M37.125 20.25C38.989 20.25 40.5 18.739 40.5 16.875C40.5 15.011 38.989 13.5 37.125 13.5C35.261 13.5 33.75 15.011 33.75 16.875C33.75 18.739 35.261 20.25 37.125 20.25Z" stroke="#2447F9" stroke-width="5" stroke-linecap="round" stroke-linejoin="round"/>
<path d="M34.875 40.5C37.9816 40.5 40.5 37.9816 40.5 34.875C40.5 31.7684 37.9816 29.25 34.875 29.25C31.7684 29.25 29.25 31.7684 29.25 34.875C29.25 37.9816 31.7684 40.5 34.875 40.5Z" stroke="#2447F9" stroke-width="5" stroke-linecap="round" stroke-linejoin="round"/>
</svg>
