<svg width="54" height="54" viewBox="0 0 54 54" fill="none" xmlns="http://www.w3.org/2000/svg">
<path d="M27.315 17.145H15.4575C11.2725 17.145 10.3275 19.2376 9.80997 21.8251L7.89746 30.9375H34.8975L32.985 21.8251C32.4225 19.2376 31.5 17.145 27.315 17.145Z" stroke="#2447F9" stroke-width="4" stroke-linecap="round" stroke-linejoin="round"/>
<path d="M38.2275 45.81C38.4075 47.79 36.8325 49.5001 34.8075 49.5001H31.635C29.8125 49.5001 29.565 48.7125 29.2275 47.7675L28.89 46.7551C28.4175 45.3826 28.1025 44.4376 25.6725 44.4376H17.0325C14.6025 44.4376 14.2425 45.4951 13.815 46.7551L13.4775 47.7675C13.1625 48.735 12.915 49.5001 11.07 49.5001H7.89752C5.87252 49.5001 4.27504 47.79 4.47754 45.81L5.42254 35.5275C5.67004 32.985 6.14252 30.915 10.575 30.915H32.1075C36.54 30.915 37.0125 32.985 37.26 35.5275L38.2275 45.81Z" stroke="#2447F9" stroke-width="4" stroke-linecap="round" stroke-linejoin="round"/>
<path d="M7.875 25.875H6.1875" stroke="#2447F9" stroke-width="4" stroke-linecap="round" stroke-linejoin="round"/>
<path d="M36.5625 25.875H34.875" stroke="#2447F9" stroke-width="4" stroke-linecap="round" stroke-linejoin="round"/>
<path d="M11.25 37.6875H16.3125" stroke="#2447F9" stroke-width="4" stroke-linecap="round" stroke-linejoin="round"/>
<path d="M26.4375 37.6875H31.5" stroke="#2447F9" stroke-width="4" stroke-linecap="round" stroke-linejoin="round"/>
<path d="M42.0975 19.6649C42.7275 18.2024 42.5025 16.2225 41.3325 14.49C40.185 12.7575 38.43 11.79 36.8325 11.8125" stroke="#2447F9" stroke-width="4" stroke-linecap="round" stroke-linejoin="round"/>
<path d="M49.095 21.8925C50.04 18.495 49.3649 14.3325 46.9574 10.7325C44.5499 7.13254 40.9499 4.9275 37.4399 4.5" stroke="#2447F9" stroke-width="4" stroke-linecap="round" stroke-linejoin="round"/>
</svg>
