<svg width="54" height="54" viewBox="0 0 54 54" fill="none" xmlns="http://www.w3.org/2000/svg">
<path d="M27 49.5H38.25C45 49.5 49.5 45 49.5 38.25V27C49.5 20.925 45.675 16.425 40.05 15.75C39.6 15.75 38.925 15.75 38.25 15.75H15.75C15.075 15.75 14.625 15.7499 13.95 15.9749C8.09999 16.6499 4.5 20.925 4.5 27C4.5 27.675 4.5 28.575 4.5 29.25" stroke="#2447F9" stroke-width="5" stroke-linecap="round" stroke-linejoin="round"/>
<path d="M40.05 15.75C39.6 15.75 38.925 15.75 38.25 15.75H15.75C15.075 15.75 14.625 15.75 13.95 15.975C14.175 15.3 14.625 14.85 15.3 14.175L22.5 6.75001C25.65 3.60001 30.6 3.60001 33.75 6.75001L37.8 10.8C39.15 12.15 39.825 13.95 40.05 15.75Z" stroke="#2447F9" stroke-width="5" stroke-linecap="round" stroke-linejoin="round"/>
<path d="M49.5 28.125H42.75C40.275 28.125 38.25 30.15 38.25 32.625C38.25 35.1 40.275 37.125 42.75 37.125H49.5" stroke="#2447F9" stroke-width="5" stroke-linecap="round" stroke-linejoin="round"/>
<path d="M13.0535 48.1501C17.036 48.1501 20.2535 44.9325 20.2535 40.95C20.2535 36.9675 17.036 33.75 13.0535 33.75C9.07103 33.75 5.85352 36.9675 5.85352 40.95C5.85352 44.9325 9.07103 48.1501 13.0535 48.1501Z" stroke="#2447F9" stroke-width="5" stroke-linecap="round" stroke-linejoin="round"/>
<path d="M4.5 49.5L6.75 47.25" stroke="#2447F9" stroke-width="5" stroke-linecap="round" stroke-linejoin="round"/>
</svg>
