<svg width="54" height="54" viewBox="0 0 54 54" fill="none" xmlns="http://www.w3.org/2000/svg">
<path d="M15.525 46.35C18.9 48.375 22.95 49.5 27 49.5C39.375 49.5 49.5 39.375 49.5 27C49.5 14.625 39.375 4.5 27 4.5C14.625 4.5 4.5 14.625 4.5 27C4.5 31.05 5.625 34.875 7.425 38.25L4.94044 47.806C4.74572 48.5549 5.43892 49.2317 6.18299 49.0191L15.525 46.35Z" stroke="#2447F9" stroke-width="4" stroke-miterlimit="10" stroke-linecap="round" stroke-linejoin="round"/>
<path d="M37.125 33.4091C37.125 33.7736 37.0439 34.1483 36.8715 34.5128C36.6991 34.8773 36.476 35.2215 36.182 35.5455C35.6851 36.0923 35.1375 36.4871 34.519 36.7403C33.9106 36.9934 33.2514 37.125 32.5416 37.125C31.5073 37.125 30.402 36.882 29.2359 36.3859C28.0698 35.8898 26.9037 35.2215 25.7477 34.3811C24.5816 33.5306 23.4763 32.589 22.4217 31.5461C21.3773 30.4931 20.4342 29.3895 19.5926 28.2353C18.7611 27.081 18.0918 25.9268 17.6051 24.7826C17.1184 23.6284 16.875 22.5248 16.875 21.4718C16.875 20.7833 16.9967 20.1251 17.24 19.5176C17.4834 18.9 17.8687 18.333 18.4062 17.8268C19.0551 17.1889 19.765 16.875 20.5153 16.875C20.7993 16.875 21.0832 16.9358 21.3367 17.0573C21.6003 17.1788 21.8336 17.361 22.0161 17.6243L24.3686 20.9351C24.5511 21.1883 24.683 21.4211 24.7742 21.6439C24.8655 21.8565 24.9162 22.0691 24.9162 22.2615C24.9162 22.5045 24.8452 22.7475 24.7032 22.9804C24.5714 23.2133 24.3788 23.4563 24.1354 23.6993L23.3647 24.4991C23.2532 24.6105 23.2025 24.7421 23.2025 24.9041C23.2025 24.9851 23.2126 25.056 23.2329 25.137C23.2633 25.218 23.2938 25.2788 23.314 25.3395C23.4966 25.6736 23.8109 26.109 24.2571 26.6355C24.7134 27.162 25.2001 27.6986 25.7274 28.2353C26.275 28.7719 26.8023 29.268 27.3397 29.7236C27.867 30.1691 28.303 30.4729 28.6478 30.6551C28.6985 30.6754 28.7593 30.7058 28.8303 30.7361C28.9114 30.7665 28.9926 30.7766 29.0838 30.7766C29.2562 30.7766 29.388 30.7159 29.4996 30.6045L30.2702 29.8451C30.5237 29.592 30.7671 29.3996 31.0003 29.2781C31.2335 29.1364 31.4668 29.0655 31.7203 29.0655C31.9129 29.0655 32.1157 29.106 32.3388 29.1971C32.5619 29.2883 32.7951 29.4199 33.0486 29.592L36.405 31.9714C36.6687 32.1536 36.8512 32.3662 36.9628 32.6194C37.0642 32.8725 37.125 33.1256 37.125 33.4091Z" stroke="#2447F9" stroke-width="4" stroke-miterlimit="10"/>
</svg>
